<svg xmlns="http://www.w3.org/2000/svg" xmlns:xlink="http://www.w3.org/1999/xlink" width="263" height="344" viewBox="0 0 263 344">
  <defs>
    <clipPath id="clip-path">
      <rect id="Rectangle_63" data-name="Rectangle 63" width="263" height="344" transform="translate(0.036 -0.471)" fill="#f5f7ff"/>
    </clipPath>
  </defs>
  <g id="Mask_Group_1" data-name="Mask Group 1" transform="translate(-0.036 0.471)" clip-path="url(#clip-path)">
    <g id="Asset_44" data-name="Asset 44" transform="translate(-139.282 26.058)">
      <g id="Layer_2" data-name="Layer 2" transform="translate(0 0)">
        <g id="Layer_1" data-name="Layer 1">
          <path id="Path_2278" data-name="Path 2278" d="M379.84,189.877v.019a118.859,118.859,0,0,1-16.262,41.277,120.4,120.4,0,0,1-101.819,56.046H180.587a120.287,120.287,0,0,1-87.072-37.294q-1.462-1.531-2.879-3.129a121.6,121.6,0,0,1-26.593-49.323A119.552,119.552,0,0,1,60.625,178.9c-.015-.151-.03-.3-.045-.45a210.069,210.069,0,0,1-.9-32.851c1.307-23.145,7.142-43.247,18.429-58.236,13.135-17.443,33.656-27.957,63.018-28.282,1.22-.011,2.447-.011,3.69.007,80.9,1.22,78.21,38.11,144.47,54.3,15.144,3.7,33.891,6.321,58.064,7.182.544.02,1.08.046,1.608.084C382.9,122.832,386.55,154.632,379.84,189.877Z" transform="translate(14.823 14.74)" fill="#d1e3f1" opacity="0.6"/>
          <path id="Path_2279" data-name="Path 2279" d="M348.905,115.447c-22.926,11.972-58.742,24.784-101.881,20.117-65.475-7.089-147.889-20.8-187.4,4.829,1.307-23.145,7.142-43.247,18.429-58.236,13.83-3.21,31.417-3.342,53.625,2.394,48.128,12.429,110.616,26,157.553,23.633,15.144,3.7,33.891,6.321,58.064,7.182Q348.112,115.392,348.905,115.447Z" transform="translate(14.878 19.948)" fill="#fff" opacity="0.5"/>
          <path id="Path_2280" data-name="Path 2280" d="M378.911,165.941a118.859,118.859,0,0,1-16.262,41.277c-16.575,4.989-38.625,6.824-67.187.586-69.78-15.244-146.318-14.97-202.87,18.168q-1.466-1.534-2.881-3.131a121.6,121.6,0,0,1-26.593-49.323c19.762-9.361,69.256-27.546,133.056-12.984C263.453,175.888,340.583,188.092,378.911,165.941Z" transform="translate(15.749 38.696)" fill="#fff" opacity="0.5"/>
          <path id="Path_2281" data-name="Path 2281" d="M0,32.321a5.759,5.759,0,0,0,5.729,5.735h122.6a5.735,5.735,0,0,0,0-11.471h-5.8a14.944,14.944,0,0,0-24.326-4.631,20.758,20.758,0,0,0-23.921-9.346A23.73,23.73,0,0,0,30.459,17.4,14.945,14.945,0,0,0,9.418,26.586H5.729A5.748,5.748,0,0,0,0,32.321Z" transform="translate(0 0.001)" fill="#d1e3f1" opacity="0.6"/>
          <path id="Path_2282" data-name="Path 2282" d="M225.941,51.414a3.735,3.735,0,0,1-3.714,3.72h-79.5a3.719,3.719,0,0,1,0-7.438h3.764a9.691,9.691,0,0,1,15.771-3,13.465,13.465,0,0,1,15.5-6.064,15.387,15.387,0,0,1,28.421,3.105A9.692,9.692,0,0,1,219.84,47.7h2.394A3.729,3.729,0,0,1,225.941,51.414Z" transform="translate(34.687 7.6)" fill="#d1e3f1" opacity="0.6"/>
          <path id="Path_2283" data-name="Path 2283" d="M287.5,85.485l1.012-5.157-4.832-.948a11.778,11.778,0,0,0-.64-3.775l3.982-2.675L284.1,68.567l-3.811,2.56a11.784,11.784,0,0,0-3.912-2.633l.95-4.832-5.157-1.012-.978,4.981a11.719,11.719,0,0,0-3.138.611l-2.675-3.982-4.362,2.931L263.571,71a11.8,11.8,0,0,0-2.633,3.912l-4.223-.83L255.7,79.242l4.373.857a11.712,11.712,0,0,0,.928,3.98l-3.811,2.56L260.124,91l3.982-2.675a11.777,11.777,0,0,0,3.841,2.233l-.955,4.861,5.157,1.012,1.036-5.27a11.676,11.676,0,0,0,3.337-.875l2.56,3.812,4.363-2.931-2.675-3.981a11.7,11.7,0,0,0,1.749-2.675Zm-12.952-2.065a4.817,4.817,0,1,1,1.312-6.685,4.817,4.817,0,0,1-1.312,6.685Z" transform="translate(63.802 15.633)" fill="#d1e3f1"/>
          <path id="Path_2284" data-name="Path 2284" d="M68.657,90.461,69.67,85.3l-4.832-.948a11.774,11.774,0,0,0-.64-3.775l3.982-2.674-2.931-4.363L61.438,76.1a11.762,11.762,0,0,0-3.91-2.635l.95-4.833-5.157-1.012L52.343,72.6a11.717,11.717,0,0,0-3.138.61L46.532,69.23,42.17,72.161l2.56,3.811A11.784,11.784,0,0,0,42.1,79.885l-4.223-.83-1.018,5.158,4.373.858a11.725,11.725,0,0,0,.928,3.98l-3.811,2.56,2.938,4.361L45.266,93.3a11.777,11.777,0,0,0,3.841,2.233l-.955,4.862L53.31,101.4l1.036-5.269a11.716,11.716,0,0,0,3.337-.875l2.56,3.811,4.363-2.931-2.675-3.981a11.72,11.72,0,0,0,1.749-2.674ZM55.7,88.39a4.817,4.817,0,1,1,1.312-6.685A4.817,4.817,0,0,1,55.7,88.39Z" transform="translate(9.196 16.873)" fill="#d1e3f1"/>
          <path id="Path_2285" data-name="Path 2285" d="M306.81,88.319l.553-2.819-2.641-.517a6.444,6.444,0,0,0-.349-2.063l2.175-1.462-1.6-2.384-2.083,1.4a6.428,6.428,0,0,0-2.138-1.434l.52-2.641-2.819-.552-.535,2.721a6.372,6.372,0,0,0-1.714.335l-1.462-2.177-2.384,1.6,1.4,2.083a6.417,6.417,0,0,0-1.438,2.137l-2.309-.452-.553,2.818,2.39.47a6.413,6.413,0,0,0,.507,2.174l-2.083,1.4,1.6,2.384,2.177-1.462a6.4,6.4,0,0,0,2.1,1.22l-.522,2.658,2.819.552.565-2.874a6.417,6.417,0,0,0,1.826-.481l1.4,2.083,2.384-1.6-1.462-2.175a6.4,6.4,0,0,0,.958-1.462Zm-7.079-1.125a2.633,2.633,0,1,1,.717-3.659,2.633,2.633,0,0,1-.717,3.659Z" transform="translate(72.217 18.925)" fill="#d1e3f1"/>
          <path id="Path_2286" data-name="Path 2286" d="M229.327,39.609a5.5,5.5,0,0,0,5.47,5.477H351.871a5.477,5.477,0,0,0,0-10.953h-5.534a14.27,14.27,0,0,0-23.225-4.421,19.826,19.826,0,0,0-22.841-8.925,22.659,22.659,0,0,0-41.859,4.573,14.273,14.273,0,0,0-20.092,8.773h-3.525a5.49,5.49,0,0,0-5.468,5.477Z" transform="translate(57.221 2.181)" fill="#d1e3f1" opacity="0.6"/>
          <path id="Path_2287" data-name="Path 2287" d="M408.749,256.933c0,6.059-86.244,10.971-192.633,10.971S23.482,262.992,23.482,256.933s86.245-10.972,192.634-10.972S408.749,250.873,408.749,256.933Z" transform="translate(5.859 61.372)" fill="#d1e3f1" opacity="0.6"/>
          <path id="Path_2288" data-name="Path 2288" d="M85.112,272.533h3.342l-12.37-32.126a40.424,40.424,0,0,1,4.647-11.785C85.839,219.7,89.7,209.279,83.157,210c-5.675.625-9.682,12.643-9.405,24.348L69.308,222.81A58.7,58.7,0,0,1,67.8,207.453c.823-14.187-1.011-27.77-7.872-24.066s-3.267,27.023,7.04,42.017l2.287,5.939c-7.321-11.058-21.3-20.051-26.665-16.176-5.334,3.85,4.511,9,14.287,12.187a36.736,36.736,0,0,1,13.776,7.622l10.8,28.05c-11.644-17.479-33.716-31.649-42.211-25.519-8.465,6.109,7.157,14.266,22.667,19.337,11.722,3.832,18.558,9.02,21.794,12.027Z" transform="translate(9.196 45.605)" fill="#5766ae"/>
          <path id="Path_2289" data-name="Path 2289" d="M283.824,267.826a14.8,14.8,0,0,0-.96-9.215c-3.57-7.857,1-10.462,6.895-14.451s5.007-11.887-.943-17.331,1.156-12.37-3.945-21.4-14.229-.335-14.619,9.075c-.276,6.765-8.975,7.181-10.3,16.162-1.153,7.8,9.334,12.519-.417,18.072a9.68,9.68,0,0,0-4.734,7.942,15.341,15.341,0,0,0,3.316,11.141Z" transform="translate(63.557 50.312)" fill="#5766ae"/>
          <path id="Path_2290" data-name="Path 2290" d="M267.48,264.809l8.793-50.164a.806.806,0,0,0-1.587-.277l-8.84,50.442Z" transform="translate(66.333 53.329)" fill="#5766ae"/>
          <path id="Path_2291" data-name="Path 2291" d="M304.525,268.76a18.328,18.328,0,0,0,.091-2.118c-.185-10.986,6.467-11.714,15.383-13.381s11.87-11.343,7.687-20.721,7.622-13.87,6.248-26.99-16.45-7.608-21.673,3.186c-3.749,7.762-14.126,3.836-20.231,13.652-5.3,8.522,4.553,19.357-9.653,20.9-4.537.491-7.553,3.291-9.559,6.872a19.685,19.685,0,0,0-.269,18.6Z" transform="translate(67.456 49.377)" fill="#5766ae"/>
          <path id="Path_2292" data-name="Path 2292" d="M283.925,265.29l34.227-51.881a1.025,1.025,0,1,0-1.712-1.125l-34.971,53.009Z" transform="translate(70.231 52.847)" fill="#5766ae"/>
          <path id="Path_2293" data-name="Path 2293" d="M107.964,263.586c-3.086-24.413-7.747-49.731-12.815-66.139-6.615-21.432-14.888-35.635-24.592-42.214a1.407,1.407,0,1,0-1.581,2.329c16.963,11.5,29.537,48.816,36.411,107.984Z" transform="translate(17.057 38.673)" fill="#5766ae"/>
          <path id="Path_2294" data-name="Path 2294" d="M84.436,178.543s11.541-2.272,6.755-22.408C91.191,156.135,74.509,164.623,84.436,178.543Z" transform="translate(20.281 38.959)" fill="#5766ae"/>
          <path id="Path_2295" data-name="Path 2295" d="M90.6,184.013s-1.624-11.65-21.991-8C68.605,176.021,76.151,193.148,90.6,184.013Z" transform="translate(17.119 43.742)" fill="#5766ae"/>
          <path id="Path_2296" data-name="Path 2296" d="M78.309,163.836s2.352-11.526-18.074-14.869C60.233,148.968,61.637,167.632,78.309,163.836Z" transform="translate(15.03 37.17)" fill="#5766ae"/>
          <path id="Path_2297" data-name="Path 2297" d="M91.705,202.387s11.629,1.767,13.936-18.8C105.641,183.586,87.073,185.931,91.705,202.387Z" transform="translate(22.697 45.808)" fill="#5766ae"/>
          <path id="Path_2298" data-name="Path 2298" d="M96.791,209.7S97.2,197.94,76.508,198.02C76.508,198.02,80.979,216.194,96.791,209.7Z" transform="translate(19.09 49.41)" fill="#5766ae"/>
          <path id="Path_2299" data-name="Path 2299" d="M95.68,222.858s11.594,1.987,14.291-18.534C109.971,204.324,91.36,206.316,95.68,222.858Z" transform="translate(23.711 50.983)" fill="#5766ae"/>
          <path id="Path_2300" data-name="Path 2300" d="M379.655,161.038l-.039.072L354.535,208.7l-9.541-17.372L226.7,256.283l-19.083-34.755L101.213,279.959H60.174L215.425,194.7l19.088,34.757,100.975-55.447-9.538-17.371Z" transform="translate(15.014 39.086)" fill="#4455a5"/>
          <path id="Path_2301" data-name="Path 2301" d="M376.111,160.218,351.03,207.81l-9.541-17.372L223.2,255.391l-19.083-34.755L97.708,279.067H74.222l132.754-72.9,19.088,34.757Z" transform="translate(18.52 39.978)" fill="#5766ae"/>
          <path id="Path_2302" data-name="Path 2302" d="M141.046,189.442l-6.872,4.728a10.668,10.668,0,0,0,2.674,6.485l8.122-5.373Z" transform="translate(33.479 47.269)" fill="#fda893"/>
          <path id="Path_2303" data-name="Path 2303" d="M139.756,197.547c1.022,1.2,1.468,2.124.442,3.737-.671,1.055-2.442,12.014-1.891,15.323s-1.948,3.551-3.32,3.414-8.673-24.817-8.673-24.817,6.925-3.311,9.409-3.334S138.344,195.321,139.756,197.547Z" transform="translate(31.518 47.875)" fill="#6977b7"/>
          <path id="Path_2304" data-name="Path 2304" d="M192.691,136.363s-.75,40.317-5.033,48.275-45.339,27.1-45.339,27.1a18.368,18.368,0,0,1-3.74-7.863s11.569-10.167,16.146-14.766a99.169,99.169,0,0,1,17.022-12.88l-1.042-45.811Z" transform="translate(34.578 32.542)" fill="#001f37"/>
          <path id="Path_2305" data-name="Path 2305" d="M140.5,187.473a24.752,24.752,0,0,0-3.832,2.805s2.323,7.716,6.3,8.64l2.973-1.886S141.695,191.793,140.5,187.473Z" transform="translate(34.1 46.778)" fill="#043c62"/>
          <path id="Path_2306" data-name="Path 2306" d="M235.286,178.562l4.3,7.145a10.668,10.668,0,0,0,6.636-2.274L241.36,175Z" transform="translate(58.708 43.666)" fill="#fda893"/>
          <path id="Path_2307" data-name="Path 2307" d="M243.282,180.927c1.031-1.19,1.882-1.771,3.624-1,1.143.5,12.245.611,15.433-.429s5.081,2.1,3.874,2.77c-6.506,3.6-23.235,12.3-23.235,12.3s-4.312-6.35-4.708-8.8S241.294,182.663,243.282,180.927Z" transform="translate(59.444 44.736)" fill="#6977b7"/>
          <path id="Path_2308" data-name="Path 2308" d="M184.748,116.836s45.2,17.433,51.1,24.339,25.646,49.676,25.646,49.676-3.315,6.035-8,4.837c0,0-10.077-14.843-13.643-20.553-3.727-5.969-12.469-13.12-16.7-25.981,0,0-24.142-.865-42.557-3.863-12.381-2.015-20.977-10.907-17.969-23.086a.4.4,0,0,1,.027-.1,2.139,2.139,0,0,1,1.653-1.431Z" transform="translate(40.427 29.153)" fill="#043c62"/>
          <path id="Path_2309" data-name="Path 2309" d="M233.369,179.4a20.629,20.629,0,0,0,2.464,3.5s5.893-1.586,8.8-6.071l-1.523-3.013a51.965,51.965,0,0,1-9.741,5.585Z" transform="translate(58.229 43.37)" fill="#005982"/>
          <path id="Path_2310" data-name="Path 2310" d="M257.591,50.993c-1.433-.32-7.34,3.256-7.6,3.317s-1.456-.264-2.666-.342-1.9.346-2.789,2.022a24.574,24.574,0,0,0-1.567,4.542c-.562.27-1.191.559-1.863.861q1.516,2.7,3.211,5.293c1.015-.663,1.929-1.268,2.7-1.787a2.966,2.966,0,0,0,1.749.081c1.454-.426,2.688-.9,3.407-1.188.427-.18.676-.287.676-.287a.064.064,0,0,1,.022.015,3.165,3.165,0,0,0,2.163-.141c1.5-.5,2.459-1.669,2.432-2.417s-.92-1.125-.92-1.125a1.842,1.842,0,0,0,.524-1.374c-.084-.792-1.5-1.471-1.5-1.471a1.384,1.384,0,0,0-.024-1.617c-.591-.737-2.4.07-2.554.134C253.255,55.33,258.986,51.3,257.591,50.993Z" transform="translate(60.161 12.719)" fill="#fda893"/>
          <path id="Path_2311" data-name="Path 2311" d="M245.541,57.839a.349.349,0,0,1-.161-.03.336.336,0,0,1-.165-.444l.652-1.421a.336.336,0,0,1,.47-.151,4.322,4.322,0,0,0,2.966.451,1.215,1.215,0,0,0,.795-.566.717.717,0,0,0-.015-.539.335.335,0,0,1,.6-.3,1.375,1.375,0,0,1,.037,1.091,1.8,1.8,0,0,1-1.211.952,4.652,4.652,0,0,1-3.175-.344l-.509,1.107A.334.334,0,0,1,245.541,57.839Z" transform="translate(61.178 13.64)" fill="#fd896b"/>
          <path id="Path_2312" data-name="Path 2312" d="M251.042,62.332l-.025-.014s-.25.11-.677.285a3.475,3.475,0,0,1-.808-2.165,2.475,2.475,0,0,0-.476-1.482,2.084,2.084,0,0,1-.569-1.207,2.99,2.99,0,0,1,.074-1.1c.029-.119.06-.227.091-.321a3.45,3.45,0,0,1,.174-.427.335.335,0,0,1,.6.3.769.769,0,0,0-.034.074,2.9,2.9,0,0,0-.25,1.262,1.487,1.487,0,0,0,.4.956,3.032,3.032,0,0,1,.657,1.862,2.558,2.558,0,0,0,.85,1.974Z" transform="translate(61.996 13.907)" fill="#fd896b"/>
          <path id="Path_2313" data-name="Path 2313" d="M246.755,60.065a.335.335,0,0,1-.184-.625h0a4.073,4.073,0,0,0,2.012-3,.335.335,0,1,1,.669.026,4.677,4.677,0,0,1-2.357,3.555.34.34,0,0,1-.14.042Z" transform="translate(61.482 14)" fill="#fd896b"/>
          <path id="Path_2314" data-name="Path 2314" d="M256.722,64.812S238.135,76.718,232.78,77.644s-21.8-1.444-21.8-1.444A46.676,46.676,0,0,1,206,75.589c-4.979-.911-7.9-2.563-9.609-4.724-2.856-3.6-1.14-8.809.474-12.936,0,0,2.592,2.053,15.611,4.786,0,0,18.51,3.6,19.506,3.789,0,0,13.941-4.524,21.659-7.948C253.638,58.554,255.309,63.859,256.722,64.812Z" transform="translate(48.62 14.455)" fill="#6977b7"/>
          <path id="Path_2315" data-name="Path 2315" d="M242.495,57.926l-2.482,1.107,3.724,7.528,2.328-1.291Z" transform="translate(59.887 14.454)" fill="#0056c5"/>
          <path id="Path_2316" data-name="Path 2316" d="M205.91,75.181c-4.979-.911-7.9-2.563-9.609-4.724-1.1-4.592-1.788-9.64.049-10.9a158.723,158.723,0,0,0,9.56,15.62Z" transform="translate(48.709 14.862)" fill="#1c47c1"/>
          <rect id="Rectangle_102" data-name="Rectangle 102" width="48.842" height="75.678" rx="2.44" transform="translate(106.947 166.959) rotate(-65.343)" fill="#e3f2ff"/>
          <path id="Path_2317" data-name="Path 2317" d="M161.918,153.305l9.671-21.067a3.049,3.049,0,0,0-1.5-4.042L106.854,99.168a3.045,3.045,0,0,0-4.042,1.5l-9.671,21.067Z" transform="translate(23.24 24.675)" fill="#cfdaef"/>
          <path id="Path_2318" data-name="Path 2318" d="M143.954,111.547l-2.83,6.161L138,116.277l2.749-5.989-3.036-1.393-.15-.069-1.846-.847-.227-.1-8-3.676-2.749,5.989-3.124-1.436,2.829-6.161a3.249,3.249,0,0,1,4.308-1.6l7.508,3.444.562.259,1.046.481.219.1,4.278,1.965a3.249,3.249,0,0,1,1.583,4.308Z" transform="translate(30.346 25.126)" fill="#cfdaef"/>
          <path id="Path_2319" data-name="Path 2319" d="M134.791,108.077l-1.846-.847-.227-.1a27.11,27.11,0,0,1,.766-3.44l.562.259,1.046.481A16.285,16.285,0,0,0,134.791,108.077Z" transform="translate(33.115 25.872)" fill="#cfdaef"/>
          <rect id="Rectangle_103" data-name="Rectangle 103" width="2.438" height="3.44" transform="translate(151.955 133.88) rotate(-65.343)" fill="#cfdaef"/>
          <rect id="Rectangle_104" data-name="Rectangle 104" width="2.438" height="3.44" transform="translate(168.345 141.403) rotate(-65.343)" fill="#cfdaef"/>
          <path id="Path_2320" data-name="Path 2320" d="M.666,0H7.438A.662.662,0,0,1,8.1.662V4.136a.662.662,0,0,1-.662.662H.666A.666.666,0,0,1,0,4.132V.666A.666.666,0,0,1,.666,0Z" transform="translate(127.618 156.023) rotate(-65.342)" fill="#4455a5"/>
          <path id="Path_2321" data-name="Path 2321" d="M109.262,121.54l-1.412,3.075-4.361-2,1.412-3.075a.663.663,0,0,1,.875-.33l3.158,1.449a.662.662,0,0,1,.329.88Z" transform="translate(25.822 29.731)" fill="#4455a5"/>
          <rect id="Rectangle_105" data-name="Rectangle 105" width="8.101" height="4.803" rx="0.53" transform="translate(166.176 173.723) rotate(-65.343)" fill="#4455a5"/>
          <path id="Path_2322" data-name="Path 2322" d="M140.122,135.7l-1.412,3.076-4.366-2,1.412-3.075a.665.665,0,0,1,.881-.33l3.161,1.452a.664.664,0,0,1,.324.876Z" transform="translate(33.521 33.265)" fill="#4455a5"/>
          <path id="Path_2323" data-name="Path 2323" d="M139.209,108.63a20.659,20.659,0,0,1-2.01-.923.835.835,0,0,0-.125-.7.861.861,0,0,0-1.4,0,7.027,7.027,0,0,0-1.071,3.249l.907.46s-.826,1.023-1.554.847a1.19,1.19,0,0,1-.857-1.307s-.5.892-1.25.582a1.382,1.382,0,0,1-.762-1.213,1.148,1.148,0,0,1-1.733-.65s-1.242.484-1.483-.591,1.352-4.342,1.352-4.342a35.061,35.061,0,0,1,4.923-8.544c.425-.941.941-2.064,1.517-3.306,1.264.89,2.585,1.707,3.854,2.589q1.147.793,2.3,1.582c-1.152,1.527-2.115,2.774-2.734,3.569a15.269,15.269,0,0,1-.021,2.593C138.848,104.063,139.868,106.975,139.209,108.63Z" transform="translate(31.9 23.003)" fill="#fda893"/>
          <path id="Path_2324" data-name="Path 2324" d="M170.326,82.169,186.868,75.4s6.882-11.859,2.715-19.691c0,0-17.031,7.829-25.74,12.711,0,0-13.007,7.044-17.368,11.87l-13.531,22.939s4.062,4.663,6.845,4.362c5.017-6.817,12.032-16.6,13.389-19.856Z" transform="translate(33.172 13.901)" fill="#6977b7"/>
          <path id="Path_2325" data-name="Path 2325" d="M133.793,92.46a4.255,4.255,0,0,0-1.831,2.855l7.5,4.9a9.1,9.1,0,0,0,2.007-2.739Z" transform="translate(32.927 23.071)" fill="#0056c5"/>
          <path id="Path_2326" data-name="Path 2326" d="M204.208,129.812a42.438,42.438,0,0,0,0,11.528c-6.747-2.679-16.815-7.722-26.432-3.5a25.957,25.957,0,0,1-15.41,1.473,60.425,60.425,0,0,1,1.489-17.759c2.249-8.908,4.472-20.057,5.255-24.449.662-3.711,1.307-7.221,1.932-10.488q.589-3.074,1.156-5.843h0c2.174-10.586,3.124-19.667,4.807-21.054,4.733-3.916,15.67-7.772,15.67-7.772L200.009,54s7.842,6.061,7.763,10.475c-.693,38.94-1.727,39.209-2.48,51.048A109.3,109.3,0,0,1,204.208,129.812Z" transform="translate(40.481 12.963)" fill="#6977b7"/>
          <path id="Path_2327" data-name="Path 2327" d="M168.939,111.232l-.23-.016a.5.5,0,1,1,.075-1l.125.009c1.156.08,10.371.625,16.92-1.818a32.817,32.817,0,0,0,13.422-9.736.5.5,0,1,1,.8.6,33.193,33.193,0,0,1-13.87,10.074C179.519,111.826,170.528,111.341,168.939,111.232Z" transform="translate(41.98 24.565)" fill="#1c47c1"/>
          <path id="Path_2328" data-name="Path 2328" d="M191.4,109.188a.5.5,0,0,0-.733-.435c-4.027,2.2-11.4,5.322-19.368,4.138a.5.5,0,1,0-.146.987,25.18,25.18,0,0,0,3,.26,34.719,34.719,0,0,0,16.993-4.516.491.491,0,0,0,.25-.435Z" transform="translate(42.591 27.122)" fill="#1c47c1"/>
          <path id="Path_2329" data-name="Path 2329" d="M183.62,70.264a53.434,53.434,0,0,1-14.12,10.4c.392-2.049.825-4.165,1.2-6.009h0l.807-.29Z" transform="translate(42.293 17.533)" fill="#1c47c1"/>
          <path id="Path_2330" data-name="Path 2330" d="M197.269,107.453l-4.488,13.209-5.518-12.613,3.992-43.141.106-1.683,2.022-.212.2,2.279Z" transform="translate(46.725 15.723)" fill="#fff"/>
          <path id="Path_2331" data-name="Path 2331" d="M192.785,65.292l-1.01,1.171-1.317-1.554.106-1.683,2.022-.212Z" transform="translate(47.522 15.723)" fill="#ededed"/>
          <path id="Path_2332" data-name="Path 2332" d="M194.68,61.568l-2.418,5.23-3.774-5.6,3.774-4.593Z" transform="translate(47.031 14.125)" fill="#fff"/>
          <path id="Path_2333" data-name="Path 2333" d="M184.307,58.375a9.5,9.5,0,0,1-.1-4.639,3.749,3.749,0,0,1,.375-1.043c.931-1.5,3.05-.817,3.05-.817,1.031,4.4,5.763,5.951,5.763,5.951L188.879,65.1S185.86,64.123,184.307,58.375Z" transform="translate(45.903 12.906)" fill="#1c47c1"/>
          <path id="Path_2334" data-name="Path 2334" d="M194.348,53.43s2.814,2.664,1.987,5.843l-1.282,5.4L191.509,57.4a15.562,15.562,0,0,0,2.839-3.97Z" transform="translate(47.785 13.332)" fill="#1c47c1"/>
          <path id="Path_2335" data-name="Path 2335" d="M197.654,49.571l-1.5,4.671-.961,2.981c-.17.53-.965,1.8-1.519,1.782a9.289,9.289,0,0,1-7.02-3.915l1.036-7.261a27.9,27.9,0,0,1,4.107-.409h0Z" transform="translate(46.573 11.833)" fill="#fda893"/>
          <path id="Path_2336" data-name="Path 2336" d="M196.749,49.571l-1.5,4.671a11.181,11.181,0,0,1-4.966-6.8c.2-.009.4-.016.61-.021Z" transform="translate(47.479 11.833)" fill="#fd896b"/>
          <path id="Path_2337" data-name="Path 2337" d="M205.795,36.684a60.345,60.345,0,0,1,.68,7.917.126.126,0,0,0,0,.03h0c0,.6-.022,1.177-.067,1.7-.027.3-.059.625-.1.952-.072.6-.119,1.265-.174,1.969a.5.5,0,0,1-.009.114,27.782,27.782,0,0,1-.375,3.124V52.5a12.49,12.49,0,0,1-.331,1.339c-.077.25-.161.485-.259.716-1.263,3.071-2.19,5.522-9.956.334-3.571-2.385-7.6-1.624-9.294-5.966l-.029-.075v-.014a44.675,44.675,0,0,1-2.205-8.3,6.53,6.53,0,0,1,2.218-6.079c4.769-4.051,10.628-3.992,14.619-3.271a6.506,6.506,0,0,1,5.283,5.5Z" transform="translate(45.807 7.687)" fill="#fda893"/>
          <path id="Path_2338" data-name="Path 2338" d="M201.531,49.341c-.077.25-.161.485-.259.716a2.259,2.259,0,0,1-.356,0,3.57,3.57,0,0,1-1.616-.6.34.34,0,0,1,.4-.551,2.915,2.915,0,0,0,1.272.472,2.1,2.1,0,0,0,.559-.037Z" transform="translate(49.694 12.187)" fill="#fd896b"/>
          <path id="Path_2339" data-name="Path 2339" d="M190.266,44.38a3.936,3.936,0,0,0,2.234-1.654s-.29,3.506-3.1,3.482Z" transform="translate(47.26 10.661)" fill="#fd896b"/>
          <path id="Path_2340" data-name="Path 2340" d="M208.171,33.435c2.292-2.482,2.3-6.55-1.2-7.1-5.94-.938-9.331-2.11-12.931-2.238s-5.394,3.946-9.1,4.976-6.045,7.5-4.858,11.172c.177.551.346,1.058.512,1.539a46.246,46.246,0,0,0,7.142,13.146c.119.154.231.3.334.441.22.3,2.062.75,3.839-2.2a8.392,8.392,0,0,0,1.429-4.358c-3.534-.469-6.189-4.852-4.623-7.163a2.8,2.8,0,0,1,1.631-.9,4.025,4.025,0,0,1,4.217,2.352c.432,1.313.735,2.265.735,2.265l2.044.165a31.408,31.408,0,0,1-1.055-4.582c-.05-1.221,1.8-.781,1.483-3.1s-2.325-2.605-1.459-3.5,6.732-.184,8.438.772S208.171,33.435,208.171,33.435Z" transform="translate(44.856 6.012)" fill="#20363c"/>
          <path id="Path_2341" data-name="Path 2341" d="M191.362,42.006a.3.3,0,0,1-.321-.16A4.6,4.6,0,0,0,188,39.638a.3.3,0,1,1,.1-.586,5.123,5.123,0,0,1,3.475,2.529.3.3,0,0,1-.211.425Z" transform="translate(46.847 9.744)" fill="#fd896b"/>
          <path id="Path_2342" data-name="Path 2342" d="M188.97,41.257a.3.3,0,0,1-.331-.4,2.73,2.73,0,0,1,.928-1.092.3.3,0,0,1,.34.487,2.139,2.139,0,0,0-.716.828.3.3,0,0,1-.221.18Z" transform="translate(47.063 9.91)" fill="#fd896b"/>
          <path id="Path_2343" data-name="Path 2343" d="M200.488,39.01c.125.656-.111,1.25-.529,1.332s-.857-.389-.982-1.045.112-1.25.53-1.332S200.363,38.357,200.488,39.01Z" transform="translate(49.64 9.471)" fill="#20363c"/>
          <path id="Path_2344" data-name="Path 2344" d="M196.262,36.826a8.605,8.605,0,0,1,5.528-1.25l.015,1.392a15.806,15.806,0,0,0-5.264,1.442,2.374,2.374,0,0,1-.279-1.584Z" transform="translate(48.962 8.864)" fill="#20363c"/>
          <path id="Path_2345" data-name="Path 2345" d="M201.668,38.532s2.142,3.82,2.293,5.623c.085,1.012-2.635,1.689-2.635,1.689Z" transform="translate(50.234 9.615)" fill="#fda893"/>
          <path id="Path_2346" data-name="Path 2346" d="M202.476,45.571a.5.5,0,0,1-.009.114,27.779,27.779,0,0,1-.375,3.124l-.234.012a3.559,3.559,0,0,1-3.624-3.088Z" transform="translate(49.463 11.371)" fill="#fff"/>
          <path id="Path_2347" data-name="Path 2347" d="M246.628,99.11a4.857,4.857,0,1,1,4.856-4.856,4.857,4.857,0,0,1-4.856,4.856Zm0-8.189a3.334,3.334,0,1,0,3.332,3.333,3.334,3.334,0,0,0-3.332-3.333Z" transform="translate(60.326 22.306)" fill="#0172d0"/>
          <path id="Path_2348" data-name="Path 2348" d="M264.6,124.4a.761.761,0,0,1-.761-.761v-3.36a.762.762,0,0,1,1.523,0v3.36A.762.762,0,0,1,264.6,124.4Z" transform="translate(65.833 29.83)" fill="#0172d0"/>
          <path id="Path_2349" data-name="Path 2349" d="M264.6,129.119a.762.762,0,0,1-.761-.762V125a.762.762,0,1,1,1.523,0v3.359A.762.762,0,0,1,264.6,129.119Z" transform="translate(65.832 30.992)" fill="#0172d0"/>
          <path id="Path_2350" data-name="Path 2350" d="M268.979,124.746h-3.018a.762.762,0,1,1,0-1.524h3.018a.762.762,0,1,1,0,1.524Z" transform="translate(66.171 30.747)" fill="#0172d0"/>
          <path id="Path_2351" data-name="Path 2351" d="M263.847,124.746h-3.018a.762.762,0,0,1,0-1.524h3.018a.762.762,0,1,1,0,1.524Z" transform="translate(64.891 30.747)" fill="#0172d0"/>
          <path id="Path_2352" data-name="Path 2352" d="M102.9,43.958a4.856,4.856,0,1,1,4.856-4.856A4.856,4.856,0,0,1,102.9,43.958Zm0-1.523A3.332,3.332,0,1,0,99.567,39.1,3.332,3.332,0,0,0,102.9,42.435Z" transform="translate(24.464 8.546)" fill="#0172d0"/>
          <path id="Path_2353" data-name="Path 2353" d="M122.186,32.794a.762.762,0,0,0-.761-.762h-3.36a.762.762,0,0,0,0,1.524h3.357a.762.762,0,0,0,.763-.762Z" transform="translate(29.269 7.993)" fill="#0172d0"/>
          <path id="Path_2354" data-name="Path 2354" d="M126.891,32.794a.762.762,0,0,0-.762-.762H122.77a.762.762,0,1,0,0,1.524h3.359A.763.763,0,0,0,126.891,32.794Z" transform="translate(30.443 7.993)" fill="#0172d0"/>
          <path id="Path_2355" data-name="Path 2355" d="M122.523,37.176V34.158a.762.762,0,1,0-1.523,0v3.016a.762.762,0,1,0,1.523,0Z" transform="translate(30.191 8.326)" fill="#0172d0"/>
          <path id="Path_2356" data-name="Path 2356" d="M122.523,32.032V29.014a.762.762,0,0,0-1.523,0v3.018a.762.762,0,1,0,1.523,0Z" transform="translate(30.191 7.058)" fill="#0172d0"/>
        </g>
      </g>
    </g>
  </g>
</svg>
