<svg xmlns="http://www.w3.org/2000/svg" xmlns:xlink="http://www.w3.org/1999/xlink" width="264" height="342" viewBox="0 0 264 342">
  <defs>
    <clipPath id="clip-path">
      <rect id="Rectangle_173" data-name="Rectangle 173" width="264" height="342" transform="translate(-0.179 -0.154)" fill="#f5f7ff"/>
    </clipPath>
    <linearGradient id="linear-gradient" x1="0.5" y1="-1.198" x2="0.5" y2="1.547" gradientUnits="objectBoundingBox">
      <stop offset="0" stop-color="#c0d6ef"/>
      <stop offset="1" stop-color="#fff" stop-opacity="0"/>
    </linearGradient>
    <linearGradient id="linear-gradient-2" x1="0.5" y1="-0.556" x2="0.5" y2="1.387" xlink:href="#linear-gradient"/>
    <linearGradient id="linear-gradient-3" x1="0.5" y1="-0.204" x2="0.5" y2="1.299" xlink:href="#linear-gradient"/>
    <linearGradient id="linear-gradient-4" x1="0.5" y1="-0.323" x2="0.5" y2="1.329" xlink:href="#linear-gradient"/>
    <linearGradient id="linear-gradient-5" x1="0.5" y1="-0.06" x2="0.5" y2="1.264" xlink:href="#linear-gradient"/>
  </defs>
  <g id="Mask_Group_8" data-name="Mask Group 8" transform="translate(0.179 0.154)" clip-path="url(#clip-path)">
    <g id="Layer_2" data-name="Layer 2" transform="translate(-161.835 40.01)">
      <g id="Layer_1" data-name="Layer 1">
        <path id="Path_2769" data-name="Path 2769" d="M51.676,119.4H97.343a2.076,2.076,0,0,1,2.076,2.076V286.5H49.6V121.476A2.076,2.076,0,0,1,51.676,119.4Z" transform="translate(1.88 4.525)" fill="url(#linear-gradient)"/>
        <path id="Path_2770" data-name="Path 2770" d="M112.676,89.394h45.667a2.076,2.076,0,0,1,2.076,2.076V287.632H110.6V91.47a2.076,2.076,0,0,1,2.076-2.076Z" transform="translate(4.191 3.388)" fill="url(#linear-gradient-2)"/>
        <path id="Path_2771" data-name="Path 2771" d="M173.676,74.393h45.668a2.076,2.076,0,0,1,2.076,2.076V288.2H171.6V76.469A2.076,2.076,0,0,1,173.676,74.393Z" transform="translate(6.503 2.819)" fill="url(#linear-gradient-3)"/>
        <path id="Path_2772" data-name="Path 2772" d="M234.676,66.393h45.667a2.076,2.076,0,0,1,2.076,2.076V288.5H232.6V68.469a2.076,2.076,0,0,1,2.076-2.076Z" transform="translate(8.815 2.516)" fill="url(#linear-gradient-4)"/>
        <path id="Path_2773" data-name="Path 2773" d="M295.676,29.39h45.668a2.076,2.076,0,0,1,2.076,2.076V289.9H293.6V31.466a2.076,2.076,0,0,1,2.076-2.076Z" transform="translate(11.127 1.114)" fill="url(#linear-gradient-5)"/>
        <path id="Path_2774" data-name="Path 2774" d="M40.908,163.841,26.8,134.922,207.13,46.985l18.385,25.537L337.507,12.8l15.14,28.39L215.84,114.148,196.861,87.79Z" transform="translate(1.016 0.485)" fill="#fff"/>
        <path id="Path_2775" data-name="Path 2775" d="M342.275,65.115,381.294,2.489,307.548,0Z" transform="translate(11.655)" fill="#fff"/>
        <path id="Path_2776" data-name="Path 2776" d="M307.9,150.5H107.5a5.364,5.364,0,0,0-5.364,5.365V282.592h211.13V155.865A5.365,5.365,0,0,0,307.9,150.5Z" transform="translate(3.871 5.704)" fill="#1d2a5b"/>
        <rect id="Rectangle_142" data-name="Rectangle 142" width="191.373" height="114.408" transform="translate(115.878 165.565)" fill="#8cbdff"/>
        <path id="Path_2777" data-name="Path 2777" d="M89.269,276.641A14.227,14.227,0,0,0,103.5,290.868H309.79a14.228,14.228,0,0,0,14.228-14.228Z" transform="translate(3.383 10.484)" fill="#31449a"/>
        <path id="Path_2778" data-name="Path 2778" d="M220.96,280.455H181.511a3.713,3.713,0,0,1-3.713-3.713h46.875a3.713,3.713,0,0,1-3.713,3.713Z" transform="translate(6.738 10.488)" fill="#fff"/>
        <path id="Path_2779" data-name="Path 2779" d="M89.269,276.641A14.227,14.227,0,0,0,103.5,290.868h54.732a145.169,145.169,0,0,1-31.6-14.227Z" transform="translate(3.383 10.484)" fill="#1d2a5b" opacity="0.5"/>
        <path id="Path_2780" data-name="Path 2780" d="M141.91,223.809a18.994,18.994,0,0,1-2.782-.208,18.894,18.894,0,1,1,2.778.2Zm0-32.673a13.823,13.823,0,0,0-5.237,1.02,13.895,13.895,0,0,0,10.177,25.857A13.825,13.825,0,0,0,151,215.522a13.981,13.981,0,0,0,2.132-2.319,13.818,13.818,0,0,0,2.662-8.179,14.078,14.078,0,0,0-.251-2.646,13.868,13.868,0,0,0-13.634-11.244Z" transform="translate(4.666 7.058)" fill="#fff"/>
        <path id="Path_2781" data-name="Path 2781" d="M159.887,205.007H155a14.079,14.079,0,0,0-.251-2.645,13.9,13.9,0,0,0-10.376-10.86l1.142-4.756a18.652,18.652,0,0,1,4.671,1.817,18.821,18.821,0,0,1,9.706,16.443Z" transform="translate(5.471 7.077)" fill="#31449a"/>
        <path id="Path_2782" data-name="Path 2782" d="M147.723,221.9l-1.741-4.572a13.818,13.818,0,0,0,4.158-2.491,13.983,13.983,0,0,0,2.132-2.319,13.818,13.818,0,0,0,2.662-8.179h4.892a18.8,18.8,0,0,1-12.1,17.559Z" transform="translate(5.532 7.744)" fill="#c0d6ef"/>
        <path id="Path_2783" data-name="Path 2783" d="M139.648,204.607a2.689,2.689,0,0,1-2.154.77,2.658,2.658,0,0,1-2.146-.774,3.694,3.694,0,0,1-.649-2.4v-.5a3.59,3.59,0,0,1,.634-2.376,2.748,2.748,0,0,1,2.161-.727,2.789,2.789,0,0,1,2.168.72,3.5,3.5,0,0,1,.641,2.354v.545a3.633,3.633,0,0,1-.656,2.389Zm-2.529-.849a.949.949,0,0,0,.752,0,.648.648,0,0,0,.24-.208,1,1,0,0,0,.133-.365,3.275,3.275,0,0,0,.057-.466c.007-.151.01-.353.01-.606v-.358c0-.268,0-.468-.007-.6a2.833,2.833,0,0,0-.05-.433.727.727,0,0,0-.129-.333.669.669,0,0,0-.241-.169,1.162,1.162,0,0,0-.781,0,.65.65,0,0,0-.241.172.712.712,0,0,0-.125.33,3.47,3.47,0,0,0-.051.433c-.007.139-.01.337-.01.595v.373c0,.253,0,.456.01.606a3.251,3.251,0,0,0,.058.465.934.934,0,0,0,.132.362A.663.663,0,0,0,137.119,203.758Zm1.859,6.746,3.612-11.882h1.354L140.332,210.5Zm6.457.021a2.655,2.655,0,0,1-2.142-.774,3.674,3.674,0,0,1-.653-2.4v-.5a3.594,3.594,0,0,1,.634-2.376,2.748,2.748,0,0,1,2.161-.727,2.79,2.79,0,0,1,2.168.719,3.5,3.5,0,0,1,.641,2.355v.544a3.633,3.633,0,0,1-.656,2.387,2.686,2.686,0,0,1-2.154.77Zm-.376-1.619a.934.934,0,0,0,.752,0,.63.63,0,0,0,.24-.208,1,1,0,0,0,.133-.365,3.418,3.418,0,0,0,.057-.466c.007-.15.01-.352.01-.605V206.9c0-.267,0-.468-.007-.6a2.833,2.833,0,0,0-.05-.434.727.727,0,0,0-.129-.333.655.655,0,0,0-.241-.168,1.142,1.142,0,0,0-.781,0,.623.623,0,0,0-.24.171.7.7,0,0,0-.126.33,3.49,3.49,0,0,0-.051.434c-.007.138-.01.336-.01.595v.373c0,.253,0,.455.01.605a3.263,3.263,0,0,0,.058.466.948.948,0,0,0,.132.362.661.661,0,0,0,.241.2Z" transform="translate(5.104 7.526)" fill="#fff"/>
        <rect id="Rectangle_143" data-name="Rectangle 143" width="54.622" height="3.598" transform="translate(172.608 193.352)" fill="#fff"/>
        <rect id="Rectangle_144" data-name="Rectangle 144" width="54.622" height="3.597" transform="translate(172.608 201.857)" fill="#fff"/>
        <rect id="Rectangle_145" data-name="Rectangle 145" width="54.622" height="3.597" transform="translate(172.608 210.36)" fill="#fff"/>
        <rect id="Rectangle_146" data-name="Rectangle 146" width="54.622" height="3.597" transform="translate(172.608 218.865)" fill="#fff"/>
        <rect id="Rectangle_147" data-name="Rectangle 147" width="54.622" height="3.598" transform="translate(172.608 227.369)" fill="#fff"/>
        <rect id="Rectangle_148" data-name="Rectangle 148" width="36.634" height="32.054" transform="translate(128.779 239.043)" fill="#fff"/>
        <rect id="Rectangle_149" data-name="Rectangle 149" width="4.202" height="32.054" transform="translate(172.281 239.043)" fill="#fff"/>
        <rect id="Rectangle_150" data-name="Rectangle 150" width="4.202" height="11.294" transform="translate(180.13 259.802)" fill="#31449a"/>
        <rect id="Rectangle_151" data-name="Rectangle 151" width="4.202" height="21.674" transform="translate(187.981 249.423)" fill="#fff"/>
        <rect id="Rectangle_152" data-name="Rectangle 152" width="4.202" height="32.054" transform="translate(195.831 239.043)" fill="#31449a"/>
        <path id="Path_2784" data-name="Path 2784" d="M200.456,261.99h-4.2l-.278-21.674h4.2Z" transform="translate(7.427 9.107)" fill="#fff"/>
        <rect id="Rectangle_153" data-name="Rectangle 153" width="4.202" height="27.902" transform="translate(211.531 243.195)" fill="#31449a"/>
        <rect id="Rectangle_154" data-name="Rectangle 154" width="4.202" height="18.561" transform="translate(219.38 252.537)" fill="#fff"/>
        <rect id="Rectangle_155" data-name="Rectangle 155" width="177.606" height="4.906" transform="translate(122.564 171.664)" fill="#fff"/>
        <path id="Path_2785" data-name="Path 2785" d="M141.931,234.768v10.575h10.575A10.575,10.575,0,0,0,141.931,234.768Z" transform="translate(5.379 8.897)" fill="#8cbdff"/>
        <path id="Path_2786" data-name="Path 2786" d="M141.051,235.854a10.575,10.575,0,1,0,5.244,19.739c-1.935-3.6-5.244-9.164-5.244-9.164Z" transform="translate(4.943 8.938)" fill="#8cbdff"/>
        <path id="Path_2787" data-name="Path 2787" d="M145.74,254.868v-.007l-.019.011v.008Z" transform="translate(5.522 9.659)" fill="#fff"/>
        <path id="Path_2788" data-name="Path 2788" d="M141.931,245.839s3.316,5.578,5.25,9.172a10.564,10.564,0,0,0,5.325-9.172Z" transform="translate(5.379 9.317)" fill="#31449a"/>
        <rect id="Rectangle_156" data-name="Rectangle 156" width="65.087" height="78.242" transform="translate(234.327 193.137)" fill="#fff"/>
        <rect id="Rectangle_157" data-name="Rectangle 157" width="55.162" height="5.077" transform="translate(239.174 198.676)" fill="#8cbdff"/>
        <rect id="Rectangle_158" data-name="Rectangle 158" width="55.162" height="5.077" transform="translate(239.174 209.063)" fill="#8cbdff"/>
        <rect id="Rectangle_159" data-name="Rectangle 159" width="55.162" height="5.077" transform="translate(239.174 219.448)" fill="#8cbdff"/>
        <rect id="Rectangle_160" data-name="Rectangle 160" width="55.162" height="5.077" transform="translate(239.174 229.834)" fill="#8cbdff"/>
        <rect id="Rectangle_161" data-name="Rectangle 161" width="7.848" height="9.238" transform="translate(240.79 258.91)" fill="#8cbdff"/>
        <rect id="Rectangle_162" data-name="Rectangle 162" width="7.848" height="13.391" transform="translate(252.128 254.757)" fill="#8cbdff"/>
        <rect id="Rectangle_163" data-name="Rectangle 163" width="7.848" height="19.618" transform="translate(263.466 248.53)" fill="#8cbdff"/>
        <rect id="Rectangle_164" data-name="Rectangle 164" width="7.848" height="24.808" transform="translate(274.804 243.339)" fill="#8cbdff"/>
        <path id="Path_2789" data-name="Path 2789" d="M283.546,259.44H275.7l-.116-29.653h7.848Z" transform="translate(10.444 8.708)" fill="#8cbdff"/>
        <rect id="Rectangle_165" data-name="Rectangle 165" width="4.152" height="113.121" transform="translate(46.171 188.231)" fill="#31449a"/>
        <path id="Path_2790" data-name="Path 2790" d="M8.239,213.565H0V221.8a30.244,30.244,0,0,0,30.244,30.244h8.239V243.8a30.242,30.242,0,0,0-30.24-30.239Z" transform="translate(0 8.094)" fill="#cfdaef"/>
        <rect id="Rectangle_166" data-name="Rectangle 166" width="1.9" height="42.279" transform="translate(16.746 239.747) rotate(-45)" fill="#cfdaef"/>
        <path id="Path_2791" data-name="Path 2791" d="M86.4,233.566h8.24v8.24A30.243,30.243,0,0,1,64.4,272.049H56.157V263.81a30.243,30.243,0,0,1,30.248-30.244Z" transform="translate(2.128 8.852)" fill="#cfdaef"/>
        <rect id="Rectangle_167" data-name="Rectangle 167" width="1.9" height="42.279" transform="translate(50.128 290.401) rotate(-135)" fill="#cfdaef"/>
        <circle id="Ellipse_50" data-name="Ellipse 50" cx="34.646" cy="34.646" r="34.646" transform="translate(13.778 121.738)" fill="#6977b7"/>
        <circle id="Ellipse_51" data-name="Ellipse 51" cx="28.687" cy="28.687" r="28.687" transform="translate(19.737 127.697)" fill="#4455a5"/>
        <path id="Path_2792" data-name="Path 2792" d="M55.839,155.69c0-7.349-11.762-7-11.762-9.86,0-1.172,1-1.852,2.794-1.852a7.9,7.9,0,0,1,4.088,1.068,2.231,2.231,0,0,0,2.774-.485l.208-.237a2.247,2.247,0,0,0-.484-3.343,10.427,10.427,0,0,0-4.509-1.673v-3.28a1.966,1.966,0,0,0-1.965-1.965h0a1.965,1.965,0,0,0-1.965,1.965v3.334c-4.092.639-6.631,3.066-6.631,6.547,0,7.423,11.761,6.827,11.761,10.2,0,1.156-1.023,1.839-2.977,1.839a11.6,11.6,0,0,1-5.468-1.479,2.252,2.252,0,0,0-2.943.751l-.278.433a2.22,2.22,0,0,0,.744,3.135,15.816,15.816,0,0,0,5.791,1.868v3.922a1.965,1.965,0,0,0,1.965,1.965h0a1.966,1.966,0,0,0,1.965-1.965v-4.06C53.413,161.761,55.839,159.063,55.839,155.69Z" transform="translate(1.445 5.081)" fill="#eaeef8"/>
        <rect id="Rectangle_168" data-name="Rectangle 168" width="4.152" height="175.399" transform="translate(367.059 125.953)" fill="#31449a"/>
        <path id="Path_2793" data-name="Path 2793" d="M317.41,130.56h-8.239V138.8a30.244,30.244,0,0,0,30.243,30.244h8.24V160.8a30.244,30.244,0,0,0-30.245-30.244Z" transform="translate(11.717 4.948)" fill="#cfdaef"/>
        <rect id="Rectangle_169" data-name="Rectangle 169" width="1.9" height="42.279" transform="matrix(0.707, -0.707, 0.707, 0.707, 337.631, 153.595)" fill="#cfdaef"/>
        <path id="Path_2794" data-name="Path 2794" d="M317.41,202.153h-8.239v8.24a30.243,30.243,0,0,0,30.243,30.243h8.24V232.4A30.244,30.244,0,0,0,317.41,202.153Z" transform="translate(11.717 7.661)" fill="#cfdaef"/>
        <rect id="Rectangle_170" data-name="Rectangle 170" width="1.9" height="42.279" transform="matrix(0.707, -0.707, 0.707, 0.707, 337.631, 227.901)" fill="#cfdaef"/>
        <path id="Path_2795" data-name="Path 2795" d="M395.571,150.561h8.24v8.24a30.244,30.244,0,0,1-30.245,30.244h-8.238V180.8A30.243,30.243,0,0,1,395.571,150.561Z" transform="translate(13.845 5.706)" fill="#cfdaef"/>
        <rect id="Rectangle_171" data-name="Rectangle 171" width="1.9" height="42.279" transform="matrix(-0.707, -0.707, 0.707, -0.707, 371.015, 204.251)" fill="#cfdaef"/>
        <path id="Path_2796" data-name="Path 2796" d="M395.571,222.155h8.24v8.239a30.243,30.243,0,0,1-30.244,30.243h-8.239V252.4A30.243,30.243,0,0,1,395.571,222.155Z" transform="translate(13.845 8.419)" fill="#cfdaef"/>
        <rect id="Rectangle_172" data-name="Rectangle 172" width="1.9" height="42.279" transform="translate(371.015 278.556) rotate(-135)" fill="#cfdaef"/>
        <circle id="Ellipse_52" data-name="Ellipse 52" cx="34.646" cy="34.646" r="34.646" transform="translate(334.488 57.388)" fill="#6977b7"/>
        <circle id="Ellipse_53" data-name="Ellipse 53" cx="28.687" cy="28.687" r="28.687" transform="translate(340.447 63.347)" fill="#4455a5"/>
        <path id="Path_2797" data-name="Path 2797" d="M364.839,93.69c0-7.349-11.762-7-11.762-9.86,0-1.172,1-1.852,2.794-1.852a7.9,7.9,0,0,1,4.088,1.068,2.231,2.231,0,0,0,2.774-.485l.208-.237a2.247,2.247,0,0,0-.484-3.343,10.427,10.427,0,0,0-4.509-1.673v-3.28a1.966,1.966,0,0,0-1.965-1.965h0a1.965,1.965,0,0,0-1.965,1.965v3.334c-4.092.639-6.631,3.066-6.631,6.547,0,7.423,11.761,6.827,11.761,10.2,0,1.156-1.023,1.839-2.977,1.839a11.6,11.6,0,0,1-5.468-1.479,2.252,2.252,0,0,0-2.943.751l-.278.433a2.22,2.22,0,0,0,.744,3.135,15.815,15.815,0,0,0,5.791,1.868v3.922a1.965,1.965,0,0,0,1.965,1.965h0a1.966,1.966,0,0,0,1.965-1.965v-4.059C362.413,99.761,364.839,97.063,364.839,93.69Z" transform="translate(13.155 2.731)" fill="#eaeef8"/>
      </g>
    </g>
  </g>
</svg>
