<svg xmlns="http://www.w3.org/2000/svg" xmlns:xlink="http://www.w3.org/1999/xlink" width="309" height="402" viewBox="0 0 309 402">
  <defs>
    <clipPath id="clip-path">
      <rect id="Rectangle_66" data-name="Rectangle 66" width="309" height="402" fill="#f5f7ff"/>
    </clipPath>
  </defs>
  <g id="Group_1158" data-name="Group 1158" transform="translate(-1465 -1784)">
    <rect id="Rectangle_10" data-name="Rectangle 10" width="309" height="402" transform="translate(1465 1784)" fill="#f5f7ff" opacity="0.8"/>
    <g id="Mask_Group_4" data-name="Mask Group 4" transform="translate(1465 1784)" clip-path="url(#clip-path)">
      <g id="Asset_45" data-name="Asset 45" transform="translate(109.65 44.417)">
        <g id="Layer_2" data-name="Layer 2" transform="translate(0 0)">
          <g id="Layer_1" data-name="Layer 1">
            <path id="Path_2357" data-name="Path 2357" d="M0,193.8v62.406a14.851,14.851,0,0,0,7.987.59l5.267-61.618C10.3,193.381,5.157,193.271,0,193.8Z" transform="translate(186.498 48.988)" fill="#cfdaef" opacity="0.5"/>
            <path id="Path_2358" data-name="Path 2358" d="M12.47,274.611c0,3.915,17.689,7.088,39.51,7.088s39.511-3.173,39.511-7.088S73.8,267.523,51.98,267.523,12.47,270.7,12.47,274.611Z" transform="translate(92.634 67.72)" fill="#6977b7"/>
            <path id="Path_2359" data-name="Path 2359" d="M43.373,4.1A16.434,16.434,0,0,1,52.8,7.063c5.013,3.338,9.828,7.155,9.782,20.3-.049,13.759,1.554,12.99,7.336,21.924,2.95,4.559,10.741,17.231-7.143,19.341-17.823,2.1-27.118-4.327-39.895-3.851-12.7.472-16.165-9.59-13.189-14.838,2.931-5.167,4.629-19.764,2.325-25.084C6.863,12.964,23.935-9.159,43.373,4.1Z" transform="translate(114.701 0)" fill="#0b2c55"/>
            <path id="Path_2360" data-name="Path 2360" d="M33.541,200.579C36.187,222.406,90.867,243.7,90.867,243.7l7.8-37.863L67.684,197.6,91.46,167.381l-2.232-28.7c-7.505.154-22.442-2.088-22.442-2.088S31.738,185.7,33.541,200.579Z" transform="translate(59.136 34.577)" fill="#3c2882"/>
            <path id="Path_2361" data-name="Path 2361" d="M28.09,195.5l-4.7,55.074c-2.435.484-7.185.783-9.911-3.288-3.759-5.617-10.45-31.673-10.45-31.673l.926-18.385S21.912,191.466,28.09,195.5Z" transform="translate(167.87 49.126)" fill="#fff"/>
            <path id="Path_2362" data-name="Path 2362" d="M22.631,195.225l16.416,1.614a13.014,13.014,0,0,1,3.243,9.883,10.878,10.878,0,0,1-5.459,8.608l-18.2-2.4Z" transform="translate(134.058 49.418)" fill="#fcbaac"/>
            <path id="Path_2363" data-name="Path 2363" d="M20.1,229.738A1.209,1.209,0,0,0,19,228.43L13.948,228a1.211,1.211,0,1,0-.207,2.411l5.059.432A1.209,1.209,0,0,0,20.1,229.738Z" transform="translate(163.859 57.713)" fill="#3c2882"/>
            <path id="Path_2364" data-name="Path 2364" d="M22.093,223.9a1.209,1.209,0,0,0-1.1-1.308L13.4,221.94a1.21,1.21,0,0,0-.206,2.411l7.588.648a1.209,1.209,0,0,0,1.308-1.1Z" transform="translate(162.505 56.18)" fill="#3c2882"/>
            <path id="Path_2365" data-name="Path 2365" d="M74.349,279.62H20.315c-.674-2.331-1.361-6.934,2.381-9.927,5.158-4.135,29.98-12.813,29.98-12.813l17.984-.627S77.764,273.273,74.349,279.62Z" transform="translate(99.683 64.867)" fill="#fff"/>
            <path id="Path_2366" data-name="Path 2366" d="M41.544,244.383l-.207,16.127a12.719,12.719,0,0,1-9.356,3.98,10.639,10.639,0,0,1-8.84-4.6l.827-15.3Z" transform="translate(129.208 61.862)" fill="#fcbaac"/>
            <path id="Path_2367" data-name="Path 2367" d="M54.73,269.906a1.182,1.182,0,0,1-1.183-1.183v-4.962a1.183,1.183,0,0,1,2.366,0v4.962a1.183,1.183,0,0,1-1.183,1.183Z" transform="translate(76.738 66.468)" fill="#3c2882"/>
            <path id="Path_2368" data-name="Path 2368" d="M48.955,270.408a1.182,1.182,0,0,1-1.183-1.183v-7.444a1.183,1.183,0,0,1,2.366,0v7.444a1.183,1.183,0,0,1-1.183,1.183Z" transform="translate(89.75 65.967)" fill="#3c2882"/>
            <path id="Path_2369" data-name="Path 2369" d="M12.851,276.394l35.813.09L53.552,134.3l-40.469,3.366Z" transform="translate(130.097 33.996)" fill="#462f97"/>
            <path id="Path_2370" data-name="Path 2370" d="M39.539,91.759c.551-1.687,8.123,1.406,8.123,1.406s-6.2-2.531-5.782-4.218,11.7,2.531,11.7,2.531-4.135-2.109-3.167-3.234,10.739,2.531,10.739,2.531,33.183,6.825,46.092,5.586c15.954-1.521,20.994-24.186,20.994-24.186,5.571-16.208,19.6-18.335,19.6-18.335,9.117,21.937-7.336,48.208-27.777,58.125-17.065,8.279-56.163-7.367-59.546-8.558-2.122-.2-18.44-1.784-17.669-3.494.763-1.688,4.454-.739,5.013-.584-.771-.218-7.046-2.041-6.529-3.494s6.892.541,7.748.812C48.1,96.336,39.017,93.358,39.539,91.759Z" transform="translate(-0.179 13.629)" fill="#fcbaac"/>
            <path id="Path_2371" data-name="Path 2371" d="M5.41,157.1s2.734.736,7.107,1.471a106.466,106.466,0,0,0,19.511,1.548c1.677-.053,3.367-.125,5.069-.284,16.069-1.406,39.54-5.584,39.54-5.584s-1.521-18.726-2.411-31.555C72.51,97.685,66.649,69.271,63.073,62.165c-1.253-2.481-2.1-4.511-4.154-5.941-5.608-3.906-13.667-4.283-13.667-4.283l-16.932.58h-.1a.535.535,0,0,0-.039.053c-.9.812-15.628,12.234-16.216,27.51C11.46,92.992,5.41,157.1,5.41,157.1Z" transform="translate(116.336 13.148)" fill="#4455a5"/>
            <path id="Path_2372" data-name="Path 2372" d="M30.327,138.611l-1.593-3.432S67.4,124.527,80.727,115.641s6.2-36.806,6.2-36.806C84.167,61.918,93.9,55.358,93.9,55.358c18.4,15.018,17.186,50.989,3.861,69.39s-63.91,21.475-63.91,21.475l-.016-.038c-3.177,1.118-16,5.287-23.7,2.685C2.22,146.2,25.4,139.9,30.327,138.611Z" transform="translate(81.346 14.013)" fill="#fcbaac"/>
            <path id="Path_2373" data-name="Path 2373" d="M107.23,126.639l-4.977-7.654a1.991,1.991,0,0,0-2.175-.841L73.565,125.1a1.99,1.99,0,0,0-1.311,2.743l3.817,8.5a1.992,1.992,0,0,0,2.356,1.1l27.67-7.8a1.991,1.991,0,0,0,1.133-3Z" transform="translate(1.876 29.89)" fill="#5b66dc"/>
            <path id="Path_2374" data-name="Path 2374" d="M102.886,126.263l-3.924-6.033a1.568,1.568,0,0,0-1.713-.663l-20.9,5.484a1.57,1.57,0,0,0-1.033,2.163l3.015,6.694a1.568,1.568,0,0,0,1.857.866l21.8-6.14a1.57,1.57,0,0,0,.895-2.371Z" transform="translate(2.405 30.254)" fill="#292e63"/>
            <path id="Path_2375" data-name="Path 2375" d="M80.685,118.818s-10.508,2.411-11.278,4.218,13.132,1.906,13.132,1.906Z" transform="translate(30.276 30.077)" fill="#fcbaac"/>
            <path id="Path_2376" data-name="Path 2376" d="M28.3,27.769V58.645s1.4,2.256,10.009,2.256,9.732-2.256,9.732-2.256V27.769Z" transform="translate(116.239 7.029)" fill="#fcbaac"/>
            <path id="Path_2377" data-name="Path 2377" d="M29.378,43.375v9.307c1.1-.06,2.336-.134,3.7-.251C50.627,50.952,47.568,27.8,47.568,27.8Z" transform="translate(115.165 7.037)" fill="#fca18d"/>
            <path id="Path_2378" data-name="Path 2378" d="M28.209,31.374v6.892a16.075,16.075,0,0,0,32.15,0V34.328c.568-.078,1.109-.168,1.586-.283a6.045,6.045,0,0,0,4.926-4.772c.683-3.07-.941-5.83-3.985-5.83a5.416,5.416,0,0,0-2.528.658V19.652a16.075,16.075,0,0,0-32.15,0v4.461c-.994-.167-3.521-.335-3.946,2.3S26.956,30.8,28.209,31.374Z" transform="translate(102.37 0.906)" fill="#fcbaac"/>
            <path id="Path_2379" data-name="Path 2379" d="M26.513,25.183a3.759,3.759,0,0,0,2.916-.951,1.91,1.91,0,0,0,.47-1.5.178.178,0,0,0-.209-.147.182.182,0,0,0-.149.208,1.535,1.535,0,0,1-.388,1.2,3.9,3.9,0,0,1-3.125.811h-.009a.182.182,0,0,0-.01.362C26.182,25.178,26.35,25.183,26.513,25.183Z" transform="translate(137.453 5.717)" fill="#d65b40"/>
            <path id="Path_2380" data-name="Path 2380" d="M57.465,23.672h.189a.182.182,0,0,0,.174-.189.175.175,0,0,0-.189-.173,2.145,2.145,0,0,1-1.673-.5A1.746,1.746,0,0,1,55.5,21.6a.18.18,0,0,0-.172-.19.187.187,0,0,0-.192.172,2.115,2.115,0,0,0,.569,1.48A2.373,2.373,0,0,0,57.465,23.672Z" transform="translate(72.827 5.42)" fill="#d65b40"/>
            <path id="Path_2381" data-name="Path 2381" d="M42.241,27.512a2.41,2.41,0,0,0,1.88-.792A5.294,5.294,0,0,0,45,23.129a.424.424,0,1,0-.842.09,4.536,4.536,0,0,1-.663,2.936,1.571,1.571,0,0,1-1.243.509,1.452,1.452,0,0,1-1.178-.491,4.436,4.436,0,0,1-.519-3.038A.424.424,0,0,0,39.716,23a5.348,5.348,0,0,0,.712,3.721A2.281,2.281,0,0,0,42.241,27.512Z" transform="translate(105.049 5.732)" fill="#d65b40"/>
            <path id="Path_2382" data-name="Path 2382" d="M51.775,27.512a2.411,2.411,0,0,0,1.88-.792,5.292,5.292,0,0,0,.877-3.591.416.416,0,0,0-.466-.376.424.424,0,0,0-.376.465,4.533,4.533,0,0,1-.662,2.936,1.575,1.575,0,0,1-1.243.509,1.455,1.455,0,0,1-1.179-.491,4.435,4.435,0,0,1-.518-3.038.424.424,0,0,0-.353-.484.419.419,0,0,0-.484.352,5.346,5.346,0,0,0,.711,3.721,2.286,2.286,0,0,0,1.813.789Z" transform="translate(83.566 5.732)" fill="#d65b40"/>
            <path id="Path_2383" data-name="Path 2383" d="M48.473,33.506a2.851,2.851,0,0,0,.388-.026.424.424,0,0,0-.119-.84,2.974,2.974,0,0,1-2.381-.9c.031-.376,1.168-5.115,1.88-8a.424.424,0,1,0-.822-.2c-.445,1.808-1.9,7.749-1.9,8.248a1.112,1.112,0,0,0,.465.8,4.1,4.1,0,0,0,2.487.926Z" transform="translate(93.482 5.872)" fill="#d65b40"/>
            <path id="Path_2384" data-name="Path 2384" d="M45.93,22.442a.605.605,0,0,0,.325-1.117c-.184-.117-4.57-2.845-8.152-.94a.605.605,0,1,0,.569,1.069c2.966-1.579,6.892.868,6.935.893A.6.6,0,0,0,45.93,22.442Z" transform="translate(105.871 4.99)" fill="#0b2c55"/>
            <path id="Path_2385" data-name="Path 2385" d="M55.106,21.847a.605.605,0,0,0,.355-1.1c-.2-.147-5.03-3.57-7.69-.429a.606.606,0,0,0,.925.782c1.94-2.3,6.015.6,6.058.627a.612.612,0,0,0,.353.117Z" transform="translate(84.357 4.81)" fill="#0b2c55"/>
            <path id="Path_2386" data-name="Path 2386" d="M46.1,37.3a5.866,5.866,0,0,0,3.622-1.372.425.425,0,1,0-.574-.627,4.5,4.5,0,0,1-5.474.376.424.424,0,1,0-.464.709A5.218,5.218,0,0,0,46.1,37.3Z" transform="translate(95.988 8.908)" fill="#d65b40"/>
            <path id="Path_2387" data-name="Path 2387" d="M38.658,29.592a1.937,1.937,0,1,0,.567-1.371,1.939,1.939,0,0,0-.567,1.371Z" transform="translate(108.773 7)" fill="#fca18d"/>
            <path id="Path_2388" data-name="Path 2388" d="M51.232,29.319a1.939,1.939,0,1,0,1.939-1.94,1.939,1.939,0,0,0-1.939,1.94Z" transform="translate(80.442 6.931)" fill="#fca18d"/>
            <path id="Path_2389" data-name="Path 2389" d="M27.534,26.355a.564.564,0,1,0,.563-.563.564.564,0,0,0-.563.563Z" transform="translate(136.587 6.529)" fill="#0b2c55"/>
            <circle id="Ellipse_20" data-name="Ellipse 20" cx="0.564" cy="0.564" r="0.564" transform="translate(129.074 29.728)" fill="#0b2c55"/>
            <path id="Path_2390" data-name="Path 2390" d="M29.388,15.94A16.337,16.337,0,0,1,61.623,19.7v4.887l-.376-.207c-.073-.039-7.041-3.863-10.07-9.917-.937.781-4.38,3.157-11.546,3.157-.35,0-.706,0-1.071-.018a34.63,34.63,0,0,1-8.991-1.353l-.231-.07Z" transform="translate(101.366 0.852)" fill="#0b2c55"/>
            <rect id="Rectangle_106" data-name="Rectangle 106" width="8.074" height="2.243" transform="translate(167.222 15.818) rotate(164.452)" fill="#cfdaef"/>
            <circle id="Ellipse_21" data-name="Ellipse 21" cx="17.817" cy="17.817" r="17.817" transform="translate(26.212 57.053)" fill="#6977b7"/>
            <ellipse id="Ellipse_22" data-name="Ellipse 22" cx="14.753" cy="14.753" rx="14.753" ry="14.753" transform="translate(29.276 60.117)" fill="#4455a5"/>
            <path id="Path_2391" data-name="Path 2391" d="M120.626,63.794c0-3.781,6.049-3.6,6.049-5.071,0-.6-.511-.952-1.436-.952a4.063,4.063,0,0,0-2.1.549,1.147,1.147,0,0,1-1.427-.251l-.105-.125a1.155,1.155,0,0,1,.251-1.719,5.357,5.357,0,0,1,2.318-.86V53.682a1.011,1.011,0,0,1,1.011-1.011h0a1.01,1.01,0,0,1,1.01,1.011V55.4c2.1.328,3.41,1.576,3.41,3.367,0,3.817-6.049,3.509-6.049,5.243,0,.594.526.946,1.531.946a5.967,5.967,0,0,0,2.812-.761,1.158,1.158,0,0,1,1.514.386l.143.223a1.142,1.142,0,0,1-.382,1.613,8.145,8.145,0,0,1-2.979.96V69.39a1.01,1.01,0,0,1-1.01,1.011h0a1.011,1.011,0,0,1-1.011-1.011V67.3C121.871,66.914,120.626,65.527,120.626,63.794Z" transform="translate(-81.15 13.333)" fill="#eaeef8"/>
            <circle id="Ellipse_23" data-name="Ellipse 23" cx="17.817" cy="17.817" r="17.817" transform="translate(0 12.654)" fill="#6977b7"/>
            <ellipse id="Ellipse_24" data-name="Ellipse 24" cx="14.753" cy="14.753" rx="14.753" ry="14.753" transform="translate(3.064 15.718)" fill="#4455a5"/>
            <path id="Path_2392" data-name="Path 2392" d="M141.546,28.365c0-3.781,6.049-3.6,6.049-5.071,0-.6-.511-.952-1.436-.952a4.063,4.063,0,0,0-2.1.549,1.149,1.149,0,0,1-1.427-.251l-.1-.125a1.155,1.155,0,0,1,.251-1.719,5.374,5.374,0,0,1,2.32-.861v-1.68a1.01,1.01,0,0,1,1.01-1.011h0a1.01,1.01,0,0,1,1.01,1.011v1.713c2.105.33,3.411,1.578,3.411,3.368,0,3.817-6.05,3.509-6.05,5.243,0,.594.528.946,1.531.946a5.967,5.967,0,0,0,2.812-.761,1.158,1.158,0,0,1,1.514.386l.143.223a1.14,1.14,0,0,1-.383,1.612,8.13,8.13,0,0,1-2.979.961v2.016a1.01,1.01,0,0,1-1.01,1.011h0a1.01,1.01,0,0,1-1.01-1.011V31.874C142.794,31.485,141.546,30.1,141.546,28.365Z" transform="translate(-128.285 4.365)" fill="#eaeef8"/>
            <circle id="Ellipse_25" data-name="Ellipse 25" cx="17.817" cy="17.817" r="17.817" transform="translate(68.722 24.481)" fill="#6977b7"/>
            <ellipse id="Ellipse_26" data-name="Ellipse 26" cx="14.753" cy="14.753" rx="14.753" ry="14.753" transform="translate(71.786 27.545)" fill="#4455a5"/>
            <path id="Path_2393" data-name="Path 2393" d="M86.705,37.8c0-3.779,6.05-3.6,6.05-5.071,0-.6-.513-.951-1.437-.951a4.066,4.066,0,0,0-2.1.549,1.147,1.147,0,0,1-1.426-.251l-.105-.125a1.155,1.155,0,0,1,.251-1.719,5.363,5.363,0,0,1,2.32-.861V27.69a1.01,1.01,0,0,1,1.01-1.01h0a1.01,1.01,0,0,1,1.01,1.01V29.4c2.105.33,3.411,1.578,3.411,3.367,0,3.817-6.049,3.509-6.049,5.244,0,.594.526.945,1.53.945a5.98,5.98,0,0,0,2.812-.759,1.155,1.155,0,0,1,1.514.386l.143.222a1.142,1.142,0,0,1-.382,1.613,8.1,8.1,0,0,1-2.979.96V43.4a1.01,1.01,0,0,1-1.01,1.01h0a1.01,1.01,0,0,1-1.01-1.01V41.312C87.953,40.923,86.705,39.535,86.705,37.8Z" transform="translate(-4.723 6.754)" fill="#eaeef8"/>
            <path id="Path_2394" data-name="Path 2394" d="M120.123,12.3,118.03,2.059l-3.36,10.167-7.38,3.36,7.449,3.487,3.487,10.236,1.966-10.167,8.772-3.36Z" transform="translate(-63.663 0.521)" fill="#cfdaef"/>
            <path id="Path_2395" data-name="Path 2395" d="M156.328,50.051l-1.189-5.813-1.909,5.773L149.04,51.92l4.231,1.98,1.98,5.813,1.117-5.774,4.982-1.907Z" transform="translate(-148.365 11.198)" fill="#cfdaef"/>
            <path id="Path_2396" data-name="Path 2396" d="M96.087,62.508,94.9,56.7l-1.907,5.773L88.8,64.376l4.231,1.981,1.98,5.812L96.126,66.4l4.982-1.909Z" transform="translate(-12.633 14.352)" fill="#cfdaef"/>
          </g>
        </g>
      </g>
    </g>
  </g>
</svg>
