<svg xmlns="http://www.w3.org/2000/svg" xmlns:xlink="http://www.w3.org/1999/xlink" width="264" height="342" viewBox="0 0 264 342">
  <defs>
    <clipPath id="clip-path">
      <rect id="Rectangle_177" data-name="Rectangle 177" width="264" height="342" transform="translate(456 1807)" fill="#f5f7ff"/>
    </clipPath>
    <radialGradient id="radial-gradient" cx="84.76" cy="115.012" r="67.683" gradientTransform="matrix(1.477, -0.199, 0.199, 1.477, -63.289, -37.938)" gradientUnits="userSpaceOnUse">
      <stop offset="0"/>
      <stop offset="0.118" stop-color="#030208"/>
      <stop offset="0.303" stop-color="#0a081e"/>
      <stop offset="0.53" stop-color="#151242"/>
      <stop offset="0.79" stop-color="#262074"/>
      <stop offset="0.996" stop-color="#342ca1"/>
    </radialGradient>
    <linearGradient id="linear-gradient" x1="6.921" y1="7.528" x2="6.921" y2="6.52" gradientUnits="objectBoundingBox">
      <stop offset="0.005" stop-color="#838bff"/>
      <stop offset="1" stop-color="#8693ff"/>
    </linearGradient>
    <linearGradient id="linear-gradient-2" x1="7.529" y1="7.528" x2="7.529" y2="6.519" gradientUnits="objectBoundingBox">
      <stop offset="0" stop-color="#f2e0ff"/>
      <stop offset="1" stop-color="#fff"/>
    </linearGradient>
    <linearGradient id="linear-gradient-3" x1="7.59" y1="7.585" x2="7.59" y2="6.574" gradientUnits="objectBoundingBox">
      <stop offset="0" stop-color="#b0c2ff"/>
      <stop offset="1" stop-color="#caffff"/>
    </linearGradient>
    <linearGradient id="linear-gradient-4" x1="14.108" y1="13.687" x2="14.108" y2="12.687" xlink:href="#linear-gradient"/>
    <linearGradient id="linear-gradient-5" x1="10.154" y1="13.788" x2="10.154" y2="12.78" xlink:href="#linear-gradient-2"/>
    <linearGradient id="linear-gradient-6" x1="10.023" y1="13.925" x2="10.023" y2="12.912" xlink:href="#linear-gradient-3"/>
    <linearGradient id="linear-gradient-7" x1="2.554" y1="2.914" x2="2.554" y2="1.905" gradientUnits="objectBoundingBox">
      <stop offset="0" stop-color="#ca90ff"/>
      <stop offset="1"/>
    </linearGradient>
    <linearGradient id="linear-gradient-8" x1="0.5" y1="1" x2="0.5" gradientUnits="objectBoundingBox">
      <stop offset="0" stop-color="#7a97ef"/>
      <stop offset="0.385" stop-color="#a3aef6"/>
      <stop offset="0.787" stop-color="#c8c2fd"/>
      <stop offset="1" stop-color="#d6caff"/>
    </linearGradient>
  </defs>
  <g id="Mask_Group_10" data-name="Mask Group 10" transform="translate(-456 -1807)" clip-path="url(#clip-path)">
    <g id="Asset_53" data-name="Asset 53" transform="translate(467.032 1864.041)">
      <path id="Path_3840" data-name="Path 3840" d="M445.353,129.074C441.6,93.341,421.94,59.766,396.3,34.039c-10.447-10.48-22.253-20.14-36.24-24.981s-30.532-4.195-42.42,4.624c-8.858,6.572-14.241,16.8-22.223,24.411-16.522,15.754-41.9,18.181-64.426,14.479S187.031,40.014,164.5,36.341s-47.915-1.17-64.373,14.649C80.952,69.424,79.786,99.727,84.44,125.915c1.579,8.87,3.644,18.171.766,26.708-4.334,12.86-18.024,19.486-29.053,27.4-27.53,19.751-42.726,55.4-37.91,88.933,5.294,36.865,32.89,67.869,66.045,84.832S155.571,375.4,192.814,375.6a319.19,319.19,0,0,0,47.485-2.864c45.618-6.608,88.548-26.657,126.366-53.011,21.122-14.718,41.045-31.655,56.123-52.522C451.153,227.949,458.178,175.576,445.353,129.074Z" transform="translate(-71.309 -49.299)" fill="#eaeef8" opacity="0.5"/>
      <g id="Layer_2" data-name="Layer 2" transform="translate(1.389 4.581)" opacity="0.8">
        <g id="Layer_1" data-name="Layer 1">
          <path id="Path_3801" data-name="Path 3801" d="M6.754.03,136.286,12.612A6.157,6.157,0,0,1,141.8,17.94l23.769,181.148a6.158,6.158,0,0,1-4.133,6.635L41.024,246.434a6.157,6.157,0,0,1-8.07-4.977L.062,7.014A6.156,6.156,0,0,1,6.754.03Z" transform="translate(-0.002 -0.001)" opacity="0.05" fill="url(#radial-gradient)"/>
          <path id="Path_3802" data-name="Path 3802" d="M20.77,26.171s.541-9.56,12.246-8.905L68.807,263.018s-12.488,5.1-17.264-5.145Z" transform="translate(-3.966 -3.29)" fill="#6977b7"/>
          <path id="Path_3803" data-name="Path 3803" d="M33.92,17.228,163.453,29.81a6.157,6.157,0,0,1,5.509,5.327l23.768,181.148a6.157,6.157,0,0,1-4.132,6.635L68.192,263.632a6.157,6.157,0,0,1-8.07-4.977L27.227,24.212a6.158,6.158,0,0,1,6.693-6.984Z" transform="translate(-5.187 -3.284)" fill="#eaeef8"/>
          <path id="Path_3804" data-name="Path 3804" d="M168.67,43.646l22.054,168.268A5.774,5.774,0,0,1,186.7,218.1L70.258,256.541a6.145,6.145,0,0,1-2.092.311,5.789,5.789,0,0,1-5.67-4.9L31.889,34.192a5.789,5.789,0,0,1,4.183-6.29,6.079,6.079,0,0,1,2.312-.234l125,11.056A5.765,5.765,0,0,1,168.67,43.646Z" transform="translate(-6.079 -5.277)" fill="#6977b7"/>
          <path id="Path_3805" data-name="Path 3805" d="M166.773,43.963,188.83,212.234a5.774,5.774,0,0,1-4.022,6.183L68.361,256.858a1.872,1.872,0,0,1-.2.055,5.789,5.789,0,0,1-5.67-4.9L31.889,34.253a5.789,5.789,0,0,1,4.183-6.29c.14,0,.281.011.422.021l124.99,11.057A5.764,5.764,0,0,1,166.773,43.963Z" transform="translate(-6.079 -5.338)" fill="#5766ae"/>
          <path id="Path_3806" data-name="Path 3806" d="M50.057,164.942s14.881,83.648,41.8,120.366l14.288-4.752Z" transform="translate(-9.555 -31.482)" fill="#1455d7" opacity="0.5"/>
          <path id="Path_3807" data-name="Path 3807" d="M248.011,252.639s-54.443-9.372-132.632,40.7c0,0-35.029-11.526-61.376-100.349Z" transform="translate(-10.308 -36.835)" fill="#6977b7"/>
          <path id="Path_3808" data-name="Path 3808" d="M32.231,92.292h0a1.828,1.828,0,0,1-2.056-1.567L25.338,54.835a1.829,1.829,0,0,1,1.568-2.057h0a1.828,1.828,0,0,1,2.056,1.568L33.8,90.236a1.828,1.828,0,0,1-1.569,2.056Z" transform="translate(-4.834 -10.071)" fill="url(#linear-gradient)"/>
          <path id="Path_3809" data-name="Path 3809" d="M31.624,92.387h0a1.4,1.4,0,0,1-1.58-1.2L25.1,54.452a1.4,1.4,0,0,1,1.2-1.579h0a1.4,1.4,0,0,1,1.579,1.2l4.95,36.73a1.4,1.4,0,0,1-1.207,1.579Z" transform="translate(-4.789 -10.09)" fill="url(#linear-gradient-2)"/>
          <path id="Path_3810" data-name="Path 3810" d="M26.308,52.842a1.4,1.4,0,0,0-1.156.991,1.4,1.4,0,0,1,2.285.89l4.95,36.73a1.4,1.4,0,0,1-.049.588,1.4,1.4,0,0,0,.5-1.267l-4.95-36.729a1.4,1.4,0,0,0-1.579-1.2Z" transform="translate(-4.802 -10.084)" fill="url(#linear-gradient-3)"/>
          <path id="Path_3811" data-name="Path 3811" d="M1.708,0h.243A1.707,1.707,0,0,1,3.658,1.707V18.655a1.707,1.707,0,0,1-1.707,1.707H1.708A1.708,1.708,0,0,1,0,18.654V1.708A1.708,1.708,0,0,1,1.708,0Z" transform="translate(26.329 87.996) rotate(-7.686)" fill="url(#linear-gradient-4)"/>
          <path id="Path_3812" data-name="Path 3812" d="M36.521,128.722h0a1.4,1.4,0,0,1-1.577-1.2l-2.347-17.4a1.4,1.4,0,0,1,1.2-1.579h0a1.4,1.4,0,0,1,1.579,1.2l2.347,17.4A1.4,1.4,0,0,1,36.521,128.722Z" transform="translate(-6.221 -20.715)" fill="url(#linear-gradient-5)"/>
          <path id="Path_3813" data-name="Path 3813" d="M33.8,108.522a1.78,1.78,0,0,0-1.214.59,2.477,2.477,0,0,1,.719-.208c.769-.1,1.435.131,1.488.524l2.528,18.757a.451.451,0,0,1-.086.309c.376-.179.611-.436.577-.69l-2.529-18.758C35.234,108.653,34.568,108.419,33.8,108.522Z" transform="translate(-6.221 -20.709)" fill="url(#linear-gradient-6)"/>
          <path id="Path_3814" data-name="Path 3814" d="M53.976,277.986s-18.594-135.345-17.8-135.5S54.25,267.335,54.25,267.335,55.831,278.052,53.976,277.986Z" transform="translate(-6.902 -27.195)" opacity="0.1" fill="url(#linear-gradient-7)"/>
          <path id="Path_3815" data-name="Path 3815" d="M243.7,220.885c-15.77-2.492-32.859-.7-49.366,3.22-43.75,10.389-83.382,35.707-83.382,35.707-28.328-15.131-51.51-66.924-61.26-98.578l-2.525-17.906L31.47,32.1l-.008-.049A4.822,4.822,0,0,1,36.7,26.626L162.251,38.682a4.8,4.8,0,0,1,4.28,4.013,1.042,1.042,0,0,1,.032.154c.534,4.062,1.327,10.147,2.266,17.332l.825,6.271.251,1.861c.615,4.709,1.278,9.7,1.934,14.759l1.6,12.178c.17,1.343.356,2.686.526,4.013l4.11,31.354c.7,5.34,1.157,8.771,1.222,9.248C202.069,190.623,243.7,220.885,243.7,220.885Z" transform="translate(-5.999 -5.079)" fill="#eaeef8"/>
          <path id="Path_3816" data-name="Path 3816" d="M87.6,48.758,89.463,60.2a3.727,3.727,0,0,0,3.512,3.126l52.749,2.358a3.726,3.726,0,0,0,3.85-4.288l-1.546-10.129a3.727,3.727,0,0,0-3.427-3.156L91.537,44.443A3.727,3.727,0,0,0,87.6,48.758Z" transform="translate(-16.712 -8.482)" fill="#1455d7" opacity="0.2"/>
          <g id="Group_1140" data-name="Group 1140" transform="translate(47.251 88.7)" opacity="0.2">
            <rect id="Rectangle_175" data-name="Rectangle 175" width="107.92" height="0.7" transform="translate(0 4.143) rotate(-2.2)" fill="#1455d7"/>
          </g>
          <g id="Group_1141" data-name="Group 1141" transform="translate(52.713 123.484)" opacity="0.2">
            <rect id="Rectangle_176" data-name="Rectangle 176" width="116.664" height="0.699" transform="translate(0 10.013) rotate(-4.924)" fill="#1455d7"/>
          </g>
          <g id="Group_1142" data-name="Group 1142" transform="translate(64.862 154.301)" opacity="0.2">
            <path id="Path_3817" data-name="Path 3817" d="M80.355,210.8l-.192-.673c.82-.233,82.416-23.246,117.845-18.876l-.081.693C162.637,187.606,81.174,210.566,80.355,210.8Z" transform="translate(-80.163 -190.698)" fill="#1455d7"/>
          </g>
          <path id="Path_3818" data-name="Path 3818" d="M70.314,86.313l.809,6.952a3.479,3.479,0,0,0,3.532,3.075l6.2-.142a3.474,3.474,0,0,0,3.364-3.929L83.35,85.7a3.474,3.474,0,0,0-3.309-3.018l-6.14-.243a3.479,3.479,0,0,0-3.588,3.875Z" transform="translate(-13.417 -15.735)" fill="#4455a5"/>
          <path id="Path_3819" data-name="Path 3819" d="M75.758,133.135l.733,6.311a3.827,3.827,0,0,0,4.161,3.368l5.677-.535a3.826,3.826,0,0,0,3.435-4.309l-.79-6a3.827,3.827,0,0,0-3.946-3.324l-5.62.223a3.828,3.828,0,0,0-3.649,4.264Z" transform="translate(-14.456 -24.554)" fill="#4455a5"/>
          <path id="Path_3820" data-name="Path 3820" d="M84.076,181.343a52.059,52.059,0,0,0,4.27,10.288,2.279,2.279,0,0,0,2.575,1.032c1.914-.526,5.153-1.422,7.768-2.177a2.289,2.289,0,0,0,1.517-2.994c-.873-2.37-2.221-6.057-3.062-8.5a2.292,2.292,0,0,0-2.41-1.53l-8.706.925a2.292,2.292,0,0,0-1.951,2.952Z" transform="translate(-16.029 -33.87)" fill="#1455d7" opacity="0.2"/>
          <path id="Path_3821" data-name="Path 3821" d="M111.711,254.775a52.016,52.016,0,0,0,6.174,9.272,2.278,2.278,0,0,0,2.726.516c1.775-.884,4.78-2.389,7.2-3.635a2.289,2.289,0,0,0,.912-3.225c-1.313-2.157-3.347-5.515-4.643-7.748a2.29,2.29,0,0,0-2.66-1.036l-8.364,2.589a2.292,2.292,0,0,0-1.346,3.267Z" transform="translate(-21.271 -47.49)" fill="#1455d7" opacity="0.2"/>
          <path id="Path_3822" data-name="Path 3822" d="M166.531,42.7l2.3,17.486.824,6.272.243,1.867,1.942,14.756,1.6,12.176.527,4.017,4.113,31.352c.426,3.226.757,5.745.971,7.349l.25,1.9L165.243,47.934a7.025,7.025,0,0,0-6.4-5.942L31.469,32.1l-.006-.049A4.822,4.822,0,0,1,36.7,26.628L162.25,38.684a4.8,4.8,0,0,1,4.28,4.011Z" transform="translate(-5.999 -5.079)" fill="#1455d7" opacity="0.2"/>
          <g id="Group_1143" data-name="Group 1143" transform="translate(99.765 201.509)" opacity="0.2">
            <path id="Path_3823" data-name="Path 3823" d="M138.666,286.789a5.664,5.664,0,0,1-3.907-1.552,105.351,105.351,0,0,1-10.27-11.268,5.7,5.7,0,0,1-1.052-4.729,5.631,5.631,0,0,1,2.937-3.783c10.154-5.2,30.393-14.236,51.859-16.389a5.676,5.676,0,0,1,4.892,1.99l5.395,6.409a5.651,5.651,0,0,1-2.777,9.079,190.985,190.985,0,0,0-44.2,19.46A5.664,5.664,0,0,1,138.666,286.789ZM178.8,249.74a4.871,4.871,0,0,0-.494.026c-21.352,2.141-41.5,11.14-51.609,16.315a4.936,4.936,0,0,0-2.573,3.313,4.993,4.993,0,0,0,.92,4.148,104.607,104.607,0,0,0,10.2,11.188h0a4.989,4.989,0,0,0,5.949.674,191.647,191.647,0,0,1,44.367-19.531,4.952,4.952,0,0,0,2.433-7.955l-5.4-6.409a4.957,4.957,0,0,0-3.79-1.769Z" transform="translate(-123.3 -249.042)" fill="#1455d7"/>
          </g>
          <path id="Path_3824" data-name="Path 3824" d="M167.839,33.539s-.236-10.707-1.383-19.1a3.626,3.626,0,0,1,4.223-4.068c4.026.714,9.542,1.738,13.085,2.589a3.618,3.618,0,0,1,2.707,2.811c.874,4.369,2.575,14.16,1.545,19.806Z" transform="translate(-31.765 -1.969)" fill="#4455a5"/>
          <g id="Group_1144" data-name="Group 1144" transform="translate(110.982 208.272)" opacity="0.5">
            <path id="Path_3825" data-name="Path 3825" d="M138.083,281.822a28.864,28.864,0,0,0,6.264-2.3,14.577,14.577,0,0,0,2.715-1.78c.809-.7,1.651-1.553,2.427-2.359a24.459,24.459,0,0,0,4.022-5.358c1.01-1.911,1.5-4.153.4-5.84a2.249,2.249,0,0,0-2.234-1.169,6.386,6.386,0,0,0-2.906,1.037,8.724,8.724,0,0,0-3.9,4.949,3.445,3.445,0,0,0,.5,2.847,3.965,3.965,0,0,0,2.478,1.627,4.913,4.913,0,0,0,3.031-.612,11.53,11.53,0,0,0,2.679-1.979,16.614,16.614,0,0,0,3.827-5.545,5.421,5.421,0,0,0,.387-1.57,1.474,1.474,0,0,0-.093-.683.544.544,0,0,0-.162-.218,1.29,1.29,0,0,0-.286-.176.393.393,0,0,0-.208-.042c-.028.007-.055.018-.1.094a1.526,1.526,0,0,0-.117.677,5.87,5.87,0,0,0,.282,1.618,9.623,9.623,0,0,0,3.859,5.32c.909.557,2.122,1,2.665.225a3.539,3.539,0,0,0,.562-1.446c.11-.545.172-1.113.229-1.687s.1-1.158.2-1.755a4.973,4.973,0,0,1,.223-.918,1.942,1.942,0,0,1,.25-.481,1.1,1.1,0,0,1,.507-.387,2.042,2.042,0,0,1,1.045-.127,3.56,3.56,0,0,1,.93.284,7.573,7.573,0,0,0,1.549.595,2.831,2.831,0,0,0,1.517-.123,3.1,3.1,0,0,0,1.278-.866c.736-.794,1.312-1.838,2.071-2.762a9.425,9.425,0,0,1,2.736-2.356,8.472,8.472,0,0,1,3.428-1.133,6.375,6.375,0,0,1,3.515.7,9.882,9.882,0,0,1,1.5.939l.7.522a1.563,1.563,0,0,0,.761.374,1.517,1.517,0,0,1-.826-.271l-.758-.435a12.3,12.3,0,0,0-1.537-.764,6.444,6.444,0,0,0-3.279-.419,8.762,8.762,0,0,0-3.1,1.174,9.61,9.61,0,0,0-2.5,2.185c-.728.862-1.295,1.873-2.145,2.783a3.839,3.839,0,0,1-3.508,1.2c-1.27-.252-2.241-1.193-3.1-.79-.256.049-.43.676-.508,1.2-.087.55-.133,1.128-.192,1.708a17.411,17.411,0,0,1-.243,1.765,4.23,4.23,0,0,1-.712,1.767,1.849,1.849,0,0,1-.883.623,2.19,2.19,0,0,1-1.044.044,5.109,5.109,0,0,1-1.729-.723,10.38,10.38,0,0,1-4.118-5.767,7.2,7.2,0,0,1-.315-1.806,2.135,2.135,0,0,1,.193-1.02.851.851,0,0,1,.552-.443,1.057,1.057,0,0,1,.641.074,2.014,2.014,0,0,1,.459.272,1.269,1.269,0,0,1,.367.464,2.169,2.169,0,0,1,.181,1.021,6.091,6.091,0,0,1-.4,1.812,17.439,17.439,0,0,1-3.9,5.941,12.5,12.5,0,0,1-2.864,2.209,5.947,5.947,0,0,1-3.673.795,5.084,5.084,0,0,1-3.258-2.023,4.674,4.674,0,0,1-.768-3.793,8.305,8.305,0,0,1,1.646-3.369,11.475,11.475,0,0,1,2.718-2.5,7.768,7.768,0,0,1,3.572-1.335,4.131,4.131,0,0,1,2.078.365,3.777,3.777,0,0,1,1.567,1.451,5.907,5.907,0,0,1,.9,3.831,10.438,10.438,0,0,1-1.087,3.612,27,27,0,0,1-4.169,5.871c-.809.89-1.579,1.72-2.5,2.567a16.5,16.5,0,0,1-3.041,2.125,30.86,30.86,0,0,1-6.724,2.683,1.141,1.141,0,1,1-.608-2.2l.028-.007Z" transform="translate(-137.163 -257.4)" fill="#1455d7"/>
          </g>
          <g id="Group_1145" data-name="Group 1145" transform="translate(160.325 161.98)" opacity="0.2">
            <path id="Path_3826" data-name="Path 3826" d="M223.361,247.533c-7.434,0-15.975-6.034-21.11-15.7-6.53-12.285-5.119-25.854,3.147-30.247,4.029-2.141,9.046-1.816,14.132.918a34.56,34.56,0,0,1,16.7,31.414c-.579,5.745-3.117,10.086-7.145,12.226a12.064,12.064,0,0,1-5.724,1.387Zm-12.2-46.639a11.46,11.46,0,0,0-5.433,1.316c-7.925,4.212-9.206,17.356-2.858,29.3s17.963,18.234,25.886,14.022c3.815-2.028,6.221-6.175,6.777-11.679a33.877,33.877,0,0,0-16.333-30.73,17.126,17.126,0,0,0-8.038-2.228Z" transform="translate(-198.145 -200.189)" fill="#1455d7"/>
            <path id="Path_3827" data-name="Path 3827" d="M223.866,243.161a14.814,14.814,0,0,1-6.981-1.91,25.12,25.12,0,0,1-9.91-10.407c-5.29-9.952-3.91-20.682,3.142-24.432s16.721,1.111,22.009,11.063h0a25.119,25.119,0,0,1,3.081,14.037c-.486,4.828-2.7,8.52-6.224,10.4a10.806,10.806,0,0,1-5.116,1.254Zm-8.63-33.094a5.933,5.933,0,0,0-2.82.672c-4.473,2.377-4.983,10.532-1.117,17.808a20.2,20.2,0,0,0,7.9,8.392c2.789,1.5,5.445,1.726,7.481.647s3.333-3.413,3.65-6.562a20.2,20.2,0,0,0-2.533-11.247h0c-3.125-5.881-8.325-9.711-12.566-9.711Z" transform="translate(-199.217 -201.136)" fill="#1455d7"/>
            <path id="Path_3828" data-name="Path 3828" d="M225,238.213a.323.323,0,0,1-.116-.021.35.35,0,0,1-.214-.446l6.075-17.177a.35.35,0,0,1,.66.234l-6.075,17.177A.351.351,0,0,1,225,238.213Z" transform="translate(-203.202 -204.036)" fill="#1455d7"/>
            <path id="Path_3829" data-name="Path 3829" d="M221.354,234.1a.349.349,0,0,1-.339-.265c-.367-1.47-.877-3.469-1.281-4.995a5.238,5.238,0,0,1-.626-1.846c-.091-.515-.147-.827.211-.9.309-.066.4-.089,1.09,2.5a.763.763,0,0,0,.454.333c.4.074.952-.418,1.472-1.312.622-1.068-.508-3.5-1.416-5.446-.971-2.087-1.74-3.735-.917-4.391a.977.977,0,0,1,.763-.21c.881.128,1.759,1.381,2.608,2.589a6.531,6.531,0,0,0,1.2,1.473.349.349,0,1,1-.052.7c-.477-.021-.919-.621-1.722-1.768-.655-.936-1.552-2.219-2.134-2.3a.273.273,0,0,0-.227.065c-.392.313.479,2.185,1.114,3.549,1.079,2.316,2.194,4.71,1.387,6.094-.89,1.528-1.686,1.737-2.2,1.648l-.071-.015c.265,1.031.6,2.359,1.024,4.068a.35.35,0,0,1-.255.424.343.343,0,0,1-.085.015Z" transform="translate(-202.133 -203.503)" fill="#1455d7"/>
            <path id="Path_3830" data-name="Path 3830" d="M224.663,217.548a.351.351,0,0,1-.35-.33l-.231-4.084a.35.35,0,1,1,.7-.04l.231,4.084a.35.35,0,0,1-.329.369Z" transform="translate(-203.095 -202.589)" fill="#1455d7"/>
          </g>
          <g id="Group_1146" data-name="Group 1146" transform="translate(56.094 127.577)" opacity="0.2">
            <path id="Path_3831" data-name="Path 3831" d="M80.622,200.5a4.014,4.014,0,0,1-3.813-2.765c-1.889-5.768-5.36-16.7-7.369-25.07a4.024,4.024,0,0,1,3.521-4.951l104.423-10.024a4.046,4.046,0,0,1,3.982,2.209l8.483,17.027a4.017,4.017,0,0,1-3.495,5.81c-13.145.334-49.658,2.722-104.682,17.624a4.028,4.028,0,0,1-1.051.141Zm97.141-42.133a3.1,3.1,0,0,0-.312.015L73.027,168.406a3.322,3.322,0,0,0-2.908,4.091c2,8.35,5.467,19.258,7.353,25.014h0a3.317,3.317,0,0,0,4.017,2.168c55.1-14.922,91.676-17.316,104.846-17.649a3.317,3.317,0,0,0,2.885-4.8L180.739,160.2A3.341,3.341,0,0,0,177.762,158.365Z" transform="translate(-69.328 -157.671)" fill="#1455d7"/>
          </g>
          <g id="Group_1147" data-name="Group 1147" transform="translate(49.92 90.426)" opacity="0.2">
            <path id="Path_3832" data-name="Path 3832" d="M69.784,151.564a4.216,4.216,0,0,1-4.167-3.617l-3.878-27.221a4.212,4.212,0,0,1,4-4.8l101.7-4.164a4.208,4.208,0,0,1,4.347,3.645l3.113,23.1a4.212,4.212,0,0,1-3.83,4.759L70.131,151.55C70.015,151.559,69.9,151.564,69.784,151.564Zm97.832-39.108h-.148l-101.7,4.167a3.511,3.511,0,0,0-3.332,4l3.879,27.221a3.512,3.512,0,0,0,3.763,3l100.94-8.287a3.511,3.511,0,0,0,3.192-3.969l-3.113-23.1a3.5,3.5,0,0,0-3.478-3.042Z" transform="translate(-61.697 -111.756)" fill="#1455d7"/>
          </g>
          <g id="Group_1148" data-name="Group 1148" transform="translate(45.634 56.198)" opacity="0.2">
            <path id="Path_3833" data-name="Path 3833" d="M64.434,104.2a4.962,4.962,0,0,1-4.945-4.378L56.437,75.052a4.988,4.988,0,0,1,5.148-5.593L162.04,73.43a4.98,4.98,0,0,1,4.746,4.318l2.368,17.576a4.988,4.988,0,0,1-4.781,5.651L64.6,104.2Zm-4.25-4.463a4.267,4.267,0,0,0,4.4,3.761l99.771-3.228a4.288,4.288,0,0,0,4.111-4.859l-2.368-17.576a4.282,4.282,0,0,0-4.08-3.712L61.557,70.158a4.288,4.288,0,0,0-4.426,4.809Z" transform="translate(-56.4 -69.455)" fill="#1455d7"/>
          </g>
          <path id="Path_3834" data-name="Path 3834" d="M78.287,92.769a.566.566,0,0,1-.418-.185l-2.254-2.478a.566.566,0,1,1,.836-.761l1.744,1.916,2.526-4.208a.566.566,0,1,1,.971.583l-2.918,4.855a.566.566,0,0,1-.428.272A.322.322,0,0,1,78.287,92.769Z" transform="translate(-14.4 -16.561)" fill="#fff"/>
          <path id="Path_3835" data-name="Path 3835" d="M83.556,139.29a.566.566,0,0,1-.418-.184l-2.255-2.478a.566.566,0,1,1,.836-.761l1.744,1.916,2.527-4.208a.566.566,0,0,1,.971.583l-2.918,4.855a.567.567,0,0,1-.429.272A.316.316,0,0,1,83.556,139.29Z" transform="translate(-15.406 -25.445)" fill="#fff"/>
          <path id="Path_3836" data-name="Path 3836" d="M123.819,259.409a1.473,1.473,0,0,1-.333-.038l-3.279-.752a1.484,1.484,0,1,1,.665-2.893l3.278.753a1.484,1.484,0,0,1-.331,2.93Z" transform="translate(-22.724 -48.801)" fill="#fff"/>
          <path id="Path_3837" data-name="Path 3837" d="M116.571,257.518a1.485,1.485,0,0,1-.378-.049l-.551-.145a1.484,1.484,0,1,1,.754-2.87l.55.145a1.484,1.484,0,0,1-.375,2.919Z" transform="translate(-21.861 -48.556)" fill="#fff"/>
          <path id="Path_3838" data-name="Path 3838" d="M126.827,259.682l.5-1.851,1.024,1.437Z" transform="translate(-24.208 -49.21)" fill="#fff"/>
          <path id="Path_3839" data-name="Path 3839" d="M198.978,250.835l-.931.8c-43.75,10.389-83.382,35.707-83.382,35.707-28.328-15.131-51.51-66.924-61.26-98.578L50.881,170.86C58.673,177.577,133.559,240.86,198.978,250.835Z" transform="translate(-9.713 -32.611)" opacity="0.2" fill="url(#linear-gradient-8)"/>
        </g>
      </g>
    </g>
  </g>
</svg>
