<svg xmlns="http://www.w3.org/2000/svg" xmlns:xlink="http://www.w3.org/1999/xlink" width="309" height="402" viewBox="0 0 309 402">
  <defs>
    <clipPath id="clip-path">
      <rect id="Rectangle_64" data-name="Rectangle 64" width="309" height="402" transform="translate(1025 1670)" fill="#f5f7ff"/>
    </clipPath>
    <linearGradient id="linear-gradient" x1="0.125" y1="1.135" x2="0.913" y2="0.111" gradientUnits="objectBoundingBox">
      <stop offset="0" stop-color="#3e6adc"/>
      <stop offset="1" stop-color="#4f8bff"/>
    </linearGradient>
    <linearGradient id="linear-gradient-2" x1="0.093" y1="1.214" x2="0.771" y2="0.046" gradientUnits="objectBoundingBox">
      <stop offset="0.324" stop-color="#3e6adc"/>
      <stop offset="1" stop-color="#4f8bff"/>
    </linearGradient>
    <linearGradient id="linear-gradient-3" x1="1.275" y1="-12.375" x2="1.772" y2="-13.792" xlink:href="#linear-gradient-2"/>
    <linearGradient id="linear-gradient-4" x1="6.351" y1="8.879" x2="6.819" y2="7.335" gradientUnits="objectBoundingBox">
      <stop offset="0" stop-color="#ffba22"/>
      <stop offset="1" stop-color="#ffd337"/>
    </linearGradient>
    <linearGradient id="linear-gradient-5" y1="0.5" x2="1" y2="0.5" gradientUnits="objectBoundingBox">
      <stop offset="0" stop-color="#ffc000"/>
      <stop offset="1" stop-color="#ff9c00"/>
    </linearGradient>
    <linearGradient id="linear-gradient-7" y1="0.5" x2="1" y2="0.5" gradientUnits="objectBoundingBox">
      <stop offset="0" stop-color="#072997" stop-opacity="0"/>
      <stop offset="1" stop-color="#0094d4" stop-opacity="0.2"/>
    </linearGradient>
    <linearGradient id="linear-gradient-8" y1="0.5" x2="1" y2="0.5" gradientUnits="objectBoundingBox">
      <stop offset="0" stop-color="#7eafff"/>
      <stop offset="1" stop-color="#7eafff" stop-opacity="0"/>
    </linearGradient>
    <linearGradient id="linear-gradient-9" x1="0" y1="0.5" x2="1.803" y2="0.5" xlink:href="#linear-gradient-8"/>
    <linearGradient id="linear-gradient-10" x1="0.057" y1="0.879" x2="1.02" y2="0.054" gradientUnits="objectBoundingBox">
      <stop offset="0" stop-color="#1f1f81"/>
      <stop offset="1" stop-color="#292999"/>
    </linearGradient>
    <linearGradient id="linear-gradient-11" x1="0" y1="0.5" x2="1" y2="0.5" xlink:href="#linear-gradient-4"/>
    <linearGradient id="linear-gradient-13" x1="-0.097" y1="0.5" x2="1" y2="0.5" gradientUnits="objectBoundingBox">
      <stop offset="0" stop-color="#c3ccea"/>
      <stop offset="1" stop-color="#9db0dd"/>
    </linearGradient>
    <linearGradient id="linear-gradient-14" x1="0" y1="0.5" x2="1.088" y2="0.5" xlink:href="#linear-gradient-13"/>
    <linearGradient id="linear-gradient-15" x1="0.5" y1="1.722" x2="0.5" y2="0.192" gradientUnits="objectBoundingBox">
      <stop offset="0" stop-color="#bcbcbc"/>
      <stop offset="1" stop-color="#f2f4f3"/>
    </linearGradient>
    <linearGradient id="linear-gradient-16" x1="498.226" y1="0.988" x2="498.655" y2="0.235" gradientUnits="objectBoundingBox">
      <stop offset="0" stop-color="#ffa228"/>
      <stop offset="1" stop-color="#ffc939"/>
    </linearGradient>
    <linearGradient id="linear-gradient-17" x1="374.235" y1="1.022" x2="373.836" y2="0.157" xlink:href="#linear-gradient-4"/>
    <linearGradient id="linear-gradient-18" x1="617.968" y1="1.122" x2="618.202" y2="0.258" xlink:href="#linear-gradient-4"/>
    <linearGradient id="linear-gradient-19" x1="566.505" y1="0.988" x2="566.934" y2="0.235" xlink:href="#linear-gradient-16"/>
    <linearGradient id="linear-gradient-20" x1="425.56" y1="1.022" x2="425.161" y2="0.158" xlink:href="#linear-gradient-4"/>
    <linearGradient id="linear-gradient-21" x1="702.393" y1="1.122" x2="702.626" y2="0.258" xlink:href="#linear-gradient-4"/>
    <linearGradient id="linear-gradient-22" x1="0.298" y1="0.964" x2="0.702" y2="0.036" xlink:href="#linear-gradient"/>
    <linearGradient id="linear-gradient-23" x1="0.492" y1="0.561" x2="0.62" y2="0.285" xlink:href="#linear-gradient"/>
    <linearGradient id="linear-gradient-24" x1="0.487" y1="0.531" x2="0.53" y2="0.423" xlink:href="#linear-gradient"/>
    <linearGradient id="linear-gradient-25" x1="0.172" y1="1.278" x2="0.713" y2="-0.006" xlink:href="#linear-gradient"/>
    <linearGradient id="linear-gradient-26" x1="0.451" y1="0.619" x2="0.52" y2="0.454" xlink:href="#linear-gradient"/>
  </defs>
  <g id="Mask_Group_2" data-name="Mask Group 2" transform="translate(-1025 -1670)" clip-path="url(#clip-path)">
    <g id="Asset_48" data-name="Asset 48" transform="translate(949.088 1676.707)">
      <g id="Layer_2" data-name="Layer 2" transform="translate(-0.028 0)">
        <g id="Layer_1" data-name="Layer 1">
          <g id="_Group_" data-name="&lt;Group&gt;">
            <g id="_Group_2" data-name="&lt;Group&gt;" transform="translate(13.48)" opacity="0.75">
              <path id="Path_2426" data-name="Path 2426" d="M555.219,160.652c-4.716-44.906-29.424-87.1-61.643-119.43-13.129-13.17-27.965-25.31-45.543-31.393s-38.37-5.271-53.31,5.811c-11.132,8.26-17.9,21.112-27.928,30.678-20.763,19.8-52.656,22.848-80.964,18.2s-55.246-15.781-83.56-20.4-60.215-1.471-80.9,18.41c-24.1,23.165-25.563,61.247-19.714,94.158,1.984,11.147,4.579,22.835.963,33.564-5.446,16.161-22.651,24.488-36.511,34.431C31.515,249.5,12.418,294.3,18.47,336.441c6.653,46.328,41.333,85.291,83,106.608s89.581,27.159,136.383,27.412a401.125,401.125,0,0,0,59.675-3.6c57.327-8.3,111.278-33.5,158.8-66.619,26.545-18.5,51.581-39.781,70.53-66C562.507,284.909,571.335,219.092,555.219,160.652Z" transform="translate(-10.544 1.013)" fill="#eaeef8"/>
              <path id="Path_2427" data-name="Path 2427" d="M563.2,161.665c-6.1-54.861-38.858-107.473-82.36-140.944C459.576,4.364,431.146-6.1,404.745,3.923c-13.247,5.03-22.128,14.753-30.732,25.608-8.365,10.555-17.182,19.6-29.882,24.782C318.3,64.86,289.54,60.1,263.485,53.191c-28.481-7.557-56.929-17.87-86.827-16.86-25.8.87-51.331,10.024-67.128,31.323C94.285,88.21,91.251,115.485,93.338,140.315c1.177,14,6.429,28.715,4.912,42.741-1.418,13.112-11.973,21.221-22.15,28.105-10.524,7.116-20.917,14.067-29.725,23.34a127.268,127.268,0,0,0-33.422,106.53c3.985,25.079,16.276,48.245,32.683,67.4,37.476,43.738,93.964,62.4,149.731,67.934,61.938,6.139,124.67.48,182.491-23.372a432.8,432.8,0,0,0,77.156-41.671c24.442-16.527,47.937-35.126,67.158-57.639,36.171-42.355,52.747-97.9,47.965-153.261a231.358,231.358,0,0,0-7.19-40.61c-2.356-8.69-15.875-5-13.506,3.724,13.548,49.99,8.967,105.286-16.558,150.8C505.86,362.517,456.7,397.159,408.987,422.826a357.771,357.771,0,0,1-78.771,31.461c-29.171,7.629-59,10.238-89.089,10.191-55.281-.088-113.939-7.842-159.564-41.6-38.57-28.539-64.413-75.726-53.71-124.331a114.183,114.183,0,0,1,35.973-61.388c17.11-14.953,43.339-23.984,47.775-49.131,2.417-13.708-1.808-27.164-3.527-40.687a141.9,141.9,0,0,1-.317-36.8c3.252-23.875,15.853-45.252,38.986-54.37,52.544-20.709,106.035,16.513,158.615,18.2,24.105.772,49.468-5.048,67.371-22.084,9.549-9.094,15.89-21.447,26.434-29.521,9.845-7.542,22.715-9.737,34.82-8.288,26.449,3.159,47.81,23.482,64.792,42.427,17.609,19.645,32.367,42.465,41.426,67.325a161.932,161.932,0,0,1,8.988,37.449C550.178,170.529,564.192,170.63,563.2,161.665Z" transform="translate(-11.52 0)" fill="#eaeef8"/>
            </g>
            <g id="_Group_3" data-name="&lt;Group&gt;" transform="translate(99.025 114.289)">
              <g id="_Group_4" data-name="&lt;Group&gt;">
                <path id="_Path_" data-name="&lt;Path&gt;" d="M364.974,160.726a25.738,25.738,0,0,1-.384,2.889" transform="translate(-38.013 -87.406)" fill="none" stroke="#292c64" stroke-linecap="round" stroke-linejoin="round" stroke-width="2"/>
                <path id="_Path_2" data-name="&lt;Path&gt;" stroke="#292c64" d="M409.887,179.755c-4.227,11.974-17.805,30.151-61.018,9.714-65.01-30.748-90.248-115.9-160.286-84.854S251.5,224.493,204.923,262.608c-67.588,55.317-140.225-8-114.989-61.95" fill="none" transform="translate(-84.808 -97.912)" stroke-linecap="round" stroke-linejoin="round" stroke-width="2" stroke-dasharray="5.002 5.002"/>
                <path id="_Path_3" data-name="&lt;Path&gt;" d="M90.316,184.065q.678-1.276,1.43-2.545" transform="translate(-83.887 -83.928)" fill="none" stroke="#292c64" stroke-linecap="round" stroke-linejoin="round" stroke-width="2"/>
              </g>
            </g>
            <g id="_Group_5" data-name="&lt;Group&gt;" transform="translate(0 150.101)">
              <path id="_Path_4" data-name="&lt;Path&gt;" d="M129.5,385.476c-3.488-17.419-20.085-28.968-36.418-35.946s-34.279-11.612-47.531-23.442c-5.521-4.929-10-13.853-4.9-19.215a12.39,12.39,0,0,1,6.932-3.226c15.758-2.82,18.591,7.041,33.7,1.733,5.229-1.837,10.213-7.12,8.433-12.373a12.982,12.982,0,0,0-3.7-4.977c-19.856-18.814-33.081-26.466-57.053-39.64-13.514-7.424-27.5-18.322-28.886-33.685a8.082,8.082,0,0,1,.7-4.8c1.722-2.968,5.914-3.173,9.295-2.581,16.422,2.878,12.1,4.475,27.08,11.775,3.852,1.873,9.137,3.133,11.863-.166,1.73-2.094,1.543-5.164.864-7.794-4.391-17.009-40.287-34.668-17.617-43.355,5.93-2.274,12.974,6.531,18,2.642,4.241-3.285.1-9.859-3.881-13.457-5.822-5.264-11.9-12.626-9.455-20.086,2.148-6.554,10.394-9.473,17.1-7.856s12.066,6.554,16.74,11.626a117.132,117.132,0,0,1,19.126,27.248c6.048,12.245,10.684,27.08,23.155,32.64,7.445,3.321,16.142,2.387,23.911-.083,3.977-1.264,8.318-2.908,12.164-1.284,2.82,1.187,4.688,3.9,6.018,6.653a34.812,34.812,0,0,1-1.8,32.981c-4.2,6.7-10.666,11.879-14.155,18.977s-2.268,17.715,5.209,20.292c5.381,1.854,11.024-1.3,16.419-3.107,9.93-3.331,21.563-1.847,29.8,4.629s12.434,18,9.444,28.041c-5.35,17.963-27.736,23.311-42.115,35.333a49.922,49.922,0,0,0-17,44.91" transform="translate(0.028 -128.593)" fill="#4455a5"/>
              <path id="_Path_5" data-name="&lt;Path&gt;" d="M42.305,134.426s77.039,118.932,86.4,251.993" transform="translate(7.108 -127.617)" fill="none" stroke="#eaeef8" stroke-miterlimit="10" stroke-width="3"/>
              <path id="_Path_6" data-name="&lt;Path&gt;" d="M31.828,169.619s49.943,34.267,63.816,69.43" transform="translate(5.356 -121.731)" fill="none" stroke="#eaeef8" stroke-miterlimit="10" stroke-width="3"/>
              <path id="_Path_7" data-name="&lt;Path&gt;" d="M131.353,199.315s-31.8,31.118-34.027,65.07" transform="translate(16.311 -116.764)" fill="none" stroke="#eaeef8" stroke-miterlimit="10" stroke-width="3"/>
              <path id="_Path_8" data-name="&lt;Path&gt;" d="M12.66,209.03s86.657,39.851,102.765,66.676" transform="translate(2.15 -115.139)" fill="none" stroke="#eaeef8" stroke-miterlimit="10" stroke-width="3"/>
              <path id="_Path_9" data-name="&lt;Path&gt;" d="M169.961,272s-55.843,16.082-57.553,52.786" transform="translate(18.834 -104.607)" fill="none" stroke="#eaeef8" stroke-miterlimit="10" stroke-width="3"/>
              <path id="_Path_10" data-name="&lt;Path&gt;" d="M45.6,289.042s67.6,14.22,79.95,46.081" transform="translate(7.66 -101.757)" fill="none" stroke="#eaeef8" stroke-miterlimit="10" stroke-width="3"/>
            </g>
            <g id="_Group_6" data-name="&lt;Group&gt;" transform="translate(445.169 150.912)">
              <path id="_Path_11" data-name="&lt;Path&gt;" d="M500.972,174.241c-2.1-11.935,5.034-24.5.516-35.988-2.9-7.362-10.329-11.064-17.749-7.735-9.406,4.221-12.156,14.182-14.412,23.305-1.6,6.485-3.511,12.41-8.019,17.509-3.87,4.381-8.669,7.821-12.926,11.789-7.489,6.992-11.039,14.95-12.139,25.08-1.226,11.234.188,24.224-8.2,33.1-6.845,7.247-18.188,10.676-21.385,21-3.483,11.256,6.434,26.521-4.033,35.175-4.42,3.656-9.63,5.522-13.461,9.989a32.405,32.405,0,0,0-6.385,11.927,31.893,31.893,0,0,0,4.363,27.766,1.652,1.652,0,0,0,.9.637c4.708,8.614,10.2,17.385,18.931,22.276,7.727,4.329,17.567,5.284,25.038-.089,12.715-9.143,11.945-27.853,20.3-39.963a17.9,17.9,0,0,1,12.094-7.821c5.688-1.034,11.6-.054,17.019-2.5,7.917-3.587,11.354-11.992,12.394-20.135,1.577-12.346-3.392-25.192.751-37.26,3.714-10.818,14.09-17.626,18.249-28.248C520.788,213.7,504.405,193.735,500.972,174.241Z" transform="translate(-381.353 -129.287)" fill="url(#linear-gradient)"/>
              <g id="_Group_7" data-name="&lt;Group&gt;" transform="translate(17.277 24.17)">
                <path id="Path_2428" data-name="Path 2428" d="M481.379,151.4c-.337,18.936-8.447,36.941-14.81,54.484-6.192,17.073-12.511,34.1-19.346,50.932-13.826,34.042-29.905,67.246-50.809,97.551-1.069,1.55,1.459,3.01,2.52,1.473,21.05-30.517,37.185-63.966,51.1-98.248,7.1-17.481,13.638-35.174,20.058-52.907,6.235-17.219,13.869-34.708,14.2-53.291a1.46,1.46,0,0,0-2.918,0Z" transform="translate(-396.155 -149.994)" fill="#295ec2"/>
              </g>
              <g id="_Group_8" data-name="&lt;Group&gt;" transform="translate(27.777 159.771)">
                <path id="Path_2429" data-name="Path 2429" d="M414.234,308.261q-2.742-20.58-6.246-41.042c-.316-1.847-3.129-1.063-2.813.776q3.443,20.077,6.141,40.27c.244,1.835,3.166,1.859,2.918,0Z" transform="translate(-405.15 -266.165)" fill="#295ec2"/>
              </g>
              <g id="_Group_9" data-name="&lt;Group&gt;" transform="translate(47.632 164.699)">
                <path id="Path_2430" data-name="Path 2430" d="M424.4,286.152c8.214-3.492,18.092-3.429,26.783-5.292,8.033-1.724,16.478-3.522,23.61-7.754a1.459,1.459,0,1,0-1.472-2.519c-8.077,4.792-18.187,6.619-27.314,8.347-7.685,1.456-15.814,1.61-23.078,4.7-1.722.732-.233,3.247,1.473,2.52Z" transform="translate(-422.16 -270.387)" fill="#295ec2"/>
              </g>
              <g id="_Group_10" data-name="&lt;Group&gt;" transform="translate(58.473 86.172)">
                <path id="Path_2431" data-name="Path 2431" d="M438.746,261.255c1.379-8.89-1.284-18.326-2.278-27.146-1.105-9.834-1.775-19.7-2.1-29.592-.061-1.868-2.979-1.882-2.918,0,.3,9.157.889,18.3,1.858,27.407.974,9.171,4.038,19.42,2.62,28.555-.285,1.837,2.527,2.629,2.814.776Z" transform="translate(-431.447 -203.111)" fill="#295ec2"/>
              </g>
              <g id="_Group_11" data-name="&lt;Group&gt;" transform="translate(77.55 91.551)">
                <path id="Path_2432" data-name="Path 2432" d="M449.614,226.393a132.791,132.791,0,0,0,40.514-15.975,1.46,1.46,0,0,0-1.473-2.52,130.4,130.4,0,0,1-39.816,15.681c-1.836.395-1.059,3.208.775,2.814Z" transform="translate(-447.791 -207.72)" fill="#295ec2"/>
              </g>
              <g id="_Group_12" data-name="&lt;Group&gt;" transform="translate(85.263 42.498)">
                <path id="Path_2433" data-name="Path 2433" d="M463.271,192.664a68.752,68.752,0,0,1-5.953-25.563c-.074-1.868-2.993-1.882-2.918,0a72.721,72.721,0,0,0,6.353,27.03c.764,1.711,3.28.233,2.52-1.473Z" transform="translate(-454.399 -165.695)" fill="#295ec2"/>
              </g>
            </g>
            <g id="_Group_13" data-name="&lt;Group&gt;" transform="translate(434.634 122.781)">
              <path id="Path_2434" data-name="Path 2434" d="M456.947,235.711c-12.416-5.748-37.127,17.75-47.858,43.036l6.831-38.4c4-4.849,11.231-11.925,23.273-18.62,18.725-10.413,36.822-24.831,24.384-30.582-11.656-5.4-34.149,14.985-45.739,38.421l8.772-49.321a53.062,53.062,0,0,1,13.224-10.089c11.8-6.562,23.206-15.648,15.367-19.277-6.8-3.152-19.463,7.633-27.1,20.974l2.843-15.986a77.055,77.055,0,0,1,8.728-18.284c10.557-15.382,17.718-31.892,7.494-32.387s-22.02,28.147-20.617,51.994l-1.464,8.227c-.718-17.392-10.315-36.989-18.98-36.282-8.609.7-1.035,13.165,7.78,23.394,6.709,7.787,9.318,14.421,10.306,17.916L417.283,209.3c-1.216-27.547-16.4-58.456-30.106-57.336-13.657,1.117-1.645,20.894,12.343,37.119,10.569,12.264,14.728,22.736,16.323,28.313l-8.288,46.591c-1.71-27.135-16.7-57.9-30.021-55.758-10.272,1.647-4.691,15.6,11,33.98a88.122,88.122,0,0,1,17.392,30.945l-3.9,21.944a6.9,6.9,0,0,0,4.033.717l1.552-8.732c3.477-4.717,10.978-13,24.956-20.777C451.288,255.887,469.384,241.469,456.947,235.711Z" transform="translate(-372.328 -105.188)" fill="url(#linear-gradient-2)"/>
            </g>
            <g id="_Group_14" data-name="&lt;Group&gt;" transform="translate(14.813 259.4)">
              <path id="Path_2435" data-name="Path 2435" d="M128.335,299.225c-12.31,5.972-9.764,39.976,3.014,64.292l-25.405-29.6c-1.223-6.163-2.121-16.244.32-29.8,3.794-21.086,4.085-44.223-8.242-38.239-11.556,5.6-10.019,35.921.787,59.73L66.182,287.588a53.037,53.037,0,0,1,.561-16.623c2.392-13.29,2.578-27.871-5.193-24.1-6.744,3.268-6.413,19.9-.92,34.255L50.059,268.8a77.037,77.037,0,0,1-8.628-18.326c-5.225-17.91-13.47-33.905-20.327-26.3s7.849,34.865,27.2,48.877l5.442,6.341c-13.924-10.462-35.166-15.437-40.1-8.283-4.9,7.11,9.535,9.137,23.033,8.788,10.272-.265,17.063,1.917,20.394,3.364l25.7,29.946c-22.093-16.5-55.63-24.314-63.442-12.993-7.783,11.282,15.13,14.5,36.548,13.945,16.186-.418,26.924,2.992,32.25,5.288l30.816,35.911C96.854,339.5,63.554,331.629,56.774,343.293c-5.227,8.988,9.1,13.507,33.267,12.994A88.136,88.136,0,0,1,125,362.419l14.517,16.914a6.886,6.886,0,0,0,3.108-2.667l-5.777-6.73c-1.45-5.678-3.115-16.73-.282-32.471C140.369,316.377,140.666,293.241,128.335,299.225Z" transform="translate(-12.662 -222.23)" fill="url(#linear-gradient-3)"/>
            </g>
            <g id="_Group_15" data-name="&lt;Group&gt;" transform="translate(14.813 259.4)">
              <path id="Path_2436" data-name="Path 2436" d="M128.335,299.225c-12.31,5.972-9.764,39.976,3.014,64.292l-25.405-29.6c-1.223-6.163-2.121-16.244.32-29.8,3.794-21.086,4.085-44.223-8.242-38.239-11.556,5.6-10.019,35.921.787,59.73L66.182,287.588a53.037,53.037,0,0,1,.561-16.623c2.392-13.29,2.578-27.871-5.193-24.1-6.744,3.268-6.413,19.9-.92,34.255L50.059,268.8a77.037,77.037,0,0,1-8.628-18.326c-5.225-17.91-13.47-33.905-20.327-26.3s7.849,34.865,27.2,48.877l5.442,6.341c-13.924-10.462-35.166-15.437-40.1-8.283-4.9,7.11,9.535,9.137,23.033,8.788,10.272-.265,17.063,1.917,20.394,3.364l25.7,29.946c-22.093-16.5-55.63-24.314-63.442-12.993-7.783,11.282,15.13,14.5,36.548,13.945,16.186-.418,26.924,2.992,32.25,5.288l30.816,35.911C96.854,339.5,63.554,331.629,56.774,343.293c-5.227,8.988,9.1,13.507,33.267,12.994A88.136,88.136,0,0,1,125,362.419l14.517,16.914a6.886,6.886,0,0,0,3.108-2.667l-5.777-6.73c-1.45-5.678-3.115-16.73-.282-32.471C140.369,316.377,140.666,293.241,128.335,299.225Z" transform="translate(-12.662 -222.23)" fill="#5766ae"/>
            </g>
            <g id="_Group_16" data-name="&lt;Group&gt;" transform="translate(475.182 272.401)">
              <path id="Path_2437" data-name="Path 2437" d="M484.579,351.681c-7.755-11.271-40.989-3.639-63.107,12.651l25.446-29.569c5.909-2.136,15.739-4.539,29.512-4.167,21.417.584,44.335-2.608,36.565-13.9-7.281-10.582-37.02-4.5-58.932,9.761l32.675-37.972a53.039,53.039,0,0,1,16.518-1.945c13.5.365,27.942-1.643,23.045-8.76-4.25-6.175-20.636-3.347-34,4.244l10.591-12.308a77.059,77.059,0,0,1,16.825-11.287c16.925-7.858,31.494-18.416,22.947-24.045s-33.287,13-44.23,34.239l-5.45,6.334c8.245-15.338,9.967-37.086,2.151-40.89-7.767-3.781-7.6,10.8-5.223,24.093,1.807,10.119.671,17.159-.258,20.667l-25.74,29.913c12.987-24.323,15.67-58.655,3.3-64.674-12.324-6-12.058,17.138-8.288,38.23,2.847,15.939,1.091,27.067-.377,32.683l-30.866,35.871c12.352-24.221,15.123-58.324,2.568-63.273-9.677-3.816-11.984,11.034-7.843,34.845a88.137,88.137,0,0,1-.8,35.485L407.065,374.8a6.9,6.9,0,0,0,3.1,2.672l5.785-6.723c5.4-2.288,16.071-5.6,32.059-5.163C469.437,366.16,492.349,362.971,484.579,351.681Z" transform="translate(-407.065 -233.368)" fill="url(#linear-gradient-4)"/>
            </g>
            <g id="_Group_17" data-name="&lt;Group&gt;" transform="translate(308.84 422.931)">
              <rect id="_Rectangle_" data-name="&lt;Rectangle&gt;" width="76.58" height="17.916" fill="url(#linear-gradient-5)"/>
              <rect id="_Rectangle_2" data-name="&lt;Rectangle&gt;" width="76.58" height="2.57" fill="#ffcc48"/>
              <g id="_Group_18" data-name="&lt;Group&gt;" transform="translate(6.471)">
                <rect id="_Rectangle_3" data-name="&lt;Rectangle&gt;" width="3.328" height="17.916" fill="#ffbe00" opacity="0.3"/>
                <rect id="_Rectangle_4" data-name="&lt;Rectangle&gt;" width="3.329" height="17.916" transform="translate(10.051)" fill="#ffbe00" opacity="0.3"/>
                <rect id="_Rectangle_5" data-name="&lt;Rectangle&gt;" width="3.329" height="17.916" transform="translate(20.104)" fill="#ffbe00" opacity="0.3"/>
                <rect id="_Rectangle_6" data-name="&lt;Rectangle&gt;" width="3.329" height="17.916" transform="translate(30.155)" fill="#ffbe00"/>
                <rect id="_Rectangle_7" data-name="&lt;Rectangle&gt;" width="3.328" height="17.916" transform="translate(40.207)" fill="#ffbe00"/>
                <rect id="_Rectangle_8" data-name="&lt;Rectangle&gt;" width="3.328" height="17.916" transform="translate(50.26)" fill="#ffbe00"/>
                <rect id="_Rectangle_9" data-name="&lt;Rectangle&gt;" width="3.329" height="17.916" transform="translate(60.311)" fill="#ffbe00"/>
              </g>
              <rect id="_Rectangle_10" data-name="&lt;Rectangle&gt;" width="41.903" height="17.916" transform="translate(29.506)" fill="#ffe6b1" opacity="0.5"/>
              <rect id="_Rectangle_11" data-name="&lt;Rectangle&gt;" width="10.624" height="17.916" transform="translate(60.784)" fill="#ffe8c4" opacity="0.5"/>
            </g>
            <g id="_Group_19" data-name="&lt;Group&gt;" transform="translate(399.412 422.931)">
              <rect id="_Rectangle_12" data-name="&lt;Rectangle&gt;" width="76.58" height="17.916" fill="url(#linear-gradient-5)"/>
              <rect id="_Rectangle_13" data-name="&lt;Rectangle&gt;" width="76.58" height="2.57" fill="#ffcc48"/>
              <g id="_Group_20" data-name="&lt;Group&gt;" transform="translate(6.471)">
                <rect id="_Rectangle_14" data-name="&lt;Rectangle&gt;" width="3.328" height="17.916" fill="#ffbe00" opacity="0.3"/>
                <rect id="_Rectangle_15" data-name="&lt;Rectangle&gt;" width="3.329" height="17.916" transform="translate(10.051)" fill="#ffbe00" opacity="0.3"/>
                <rect id="_Rectangle_16" data-name="&lt;Rectangle&gt;" width="3.329" height="17.916" transform="translate(20.104)" fill="#ffbe00" opacity="0.3"/>
                <rect id="_Rectangle_17" data-name="&lt;Rectangle&gt;" width="3.329" height="17.916" transform="translate(30.155)" fill="#ffbe00"/>
                <rect id="_Rectangle_18" data-name="&lt;Rectangle&gt;" width="3.328" height="17.916" transform="translate(40.207)" fill="#ffbe00"/>
                <rect id="_Rectangle_19" data-name="&lt;Rectangle&gt;" width="3.329" height="17.916" transform="translate(50.26)" fill="#ffbe00"/>
                <rect id="_Rectangle_20" data-name="&lt;Rectangle&gt;" width="3.328" height="17.916" transform="translate(60.311)" fill="#ffbe00"/>
              </g>
              <rect id="_Rectangle_21" data-name="&lt;Rectangle&gt;" width="41.903" height="17.916" transform="translate(29.506)" fill="#ffe6b1" opacity="0.5"/>
              <rect id="_Rectangle_22" data-name="&lt;Rectangle&gt;" width="10.624" height="17.916" transform="translate(60.784)" fill="#ffe8c4" opacity="0.5"/>
            </g>
            <g id="_Group_21" data-name="&lt;Group&gt;" transform="translate(214.242 52.641)">
              <path id="_Path_12" data-name="&lt;Path&gt;" d="M332.107,132.07c-2.149-.666-4.285-1.292-6.42-1.9v-9.476a18.806,18.806,0,0,0-18.806-18.806H215.416a18.806,18.806,0,0,0-18.806,18.806v9.477c-2.13.607-4.267,1.233-6.42,1.9h0a9.483,9.483,0,0,0-6.674,9.185l2.871,212.482a31.467,31.467,0,0,0,31.463,31.041h86.593a31.465,31.465,0,0,0,31.462-31.041l2.871-212.482a9.482,9.482,0,0,0-6.674-9.184Z" transform="translate(-183.515 -35.599)" fill="#171770"/>
              <rect id="_Rectangle_23" data-name="&lt;Rectangle&gt;" width="113.088" height="130.6" transform="translate(21.091)" fill="#fff"/>
              <rect id="_Rectangle_24" data-name="&lt;Rectangle&gt;" width="113.088" height="130.6" transform="translate(21.091)" fill="url(#linear-gradient-7)"/>
              <g id="_Group_22" data-name="&lt;Group&gt;" transform="translate(9.337 117.701)">
                <path id="_Path_13" data-name="&lt;Path&gt;" d="M191.514,157.754l5.934-1.84c42.928-13.307,81.457-13.307,124.385,0l5.933,1.84-2.6,192.45A27.579,27.579,0,0,1,297.59,377.41h-75.9A27.58,27.58,0,0,1,194.115,350.2Z" transform="translate(-191.514 -145.934)" fill="#4455a5"/>
                <rect id="_Rectangle_25" data-name="&lt;Rectangle&gt;" width="116.485" height="87.012" transform="translate(9.884 28.727)" fill="#fff"/>
                <rect id="_Rectangle_26" data-name="&lt;Rectangle&gt;" width="116.485" height="15.088" transform="translate(9.884 28.727)" fill="url(#linear-gradient-8)"/>
                <circle id="_Path_14" data-name="&lt;Path&gt;" cx="27.208" cy="27.208" r="27.208" transform="matrix(0.449, -0.893, 0.893, 0.449, 31.596, 91.765)" fill="url(#linear-gradient-9)"/>
                <g id="_Group_23" data-name="&lt;Group&gt;" transform="translate(52.159 49.48)">
                  <path id="_Path_15" data-name="&lt;Path&gt;" d="M251.31,231.162a2.985,2.985,0,0,1-2.472-1.309l-12.12-17.808a2.992,2.992,0,1,1,4.946-3.368l9.408,13.824,18.41-32.655a2.992,2.992,0,1,1,5.213,2.938L253.918,229.64a2.99,2.99,0,0,1-2.479,1.517Z" transform="translate(-236.199 -188.324)" fill="#6977b7"/>
                </g>
                <g id="_Group_24" data-name="&lt;Group&gt;" transform="translate(9.884 133.232)">
                  <rect id="_Rectangle_27" data-name="&lt;Rectangle&gt;" width="18.807" height="11.872" rx="2.625" fill="#fff"/>
                  <rect id="_Rectangle_28" data-name="&lt;Rectangle&gt;" width="18.807" height="11.872" rx="2.625" transform="translate(26.459)" fill="#fff"/>
                </g>
                <g id="_Group_25" data-name="&lt;Group&gt;" transform="translate(81.102 133.232)">
                  <rect id="_Rectangle_29" data-name="&lt;Rectangle&gt;" width="18.807" height="11.872" rx="2.625" fill="#fff"/>
                  <rect id="_Rectangle_30" data-name="&lt;Rectangle&gt;" width="18.807" height="11.872" rx="2.625" transform="translate(26.459)" fill="#fff"/>
                </g>
                <g id="_Group_26" data-name="&lt;Group&gt;" transform="translate(13.281 155.121)">
                  <g id="_Group_27" data-name="&lt;Group&gt;">
                    <rect id="_Rectangle_31" data-name="&lt;Rectangle&gt;" width="24.916" height="14.674" rx="4.302" fill="#fff"/>
                    <rect id="_Rectangle_32" data-name="&lt;Rectangle&gt;" width="24.916" height="14.674" rx="4.302" transform="translate(42.388)" fill="#fff"/>
                    <rect id="_Rectangle_33" data-name="&lt;Rectangle&gt;" width="24.916" height="14.674" rx="4.302" transform="translate(84.774)" fill="#fff"/>
                  </g>
                  <g id="_Group_28" data-name="&lt;Group&gt;" transform="translate(0 19.566)">
                    <rect id="_Rectangle_34" data-name="&lt;Rectangle&gt;" width="24.916" height="14.674" rx="4.302" fill="#fff"/>
                    <rect id="_Rectangle_35" data-name="&lt;Rectangle&gt;" width="24.916" height="14.674" rx="4.302" transform="translate(42.388)" fill="#fff"/>
                    <rect id="_Rectangle_36" data-name="&lt;Rectangle&gt;" width="24.916" height="14.674" rx="4.302" transform="translate(84.774)" fill="#fff"/>
                  </g>
                  <g id="_Group_29" data-name="&lt;Group&gt;" transform="translate(0 39.131)">
                    <rect id="_Rectangle_37" data-name="&lt;Rectangle&gt;" width="24.916" height="14.674" rx="4.302" fill="#fff"/>
                    <rect id="_Rectangle_38" data-name="&lt;Rectangle&gt;" width="24.916" height="14.674" rx="4.302" transform="translate(42.388)" fill="#fff"/>
                    <rect id="_Rectangle_39" data-name="&lt;Rectangle&gt;" width="24.916" height="14.674" rx="4.302" transform="translate(84.774)" fill="#fff"/>
                  </g>
                </g>
              </g>
              <rect id="_Rectangle_40" data-name="&lt;Rectangle&gt;" width="61.342" height="5.999" transform="translate(46.964 6.465)" fill="#171770" opacity="0.4"/>
              <g id="_Group_30" data-name="&lt;Group&gt;" transform="translate(28.624 24.734)" opacity="0.4">
                <line id="_Path_16" data-name="&lt;Path&gt;" x2="97.678" transform="translate(0 17.315)" fill="#171770"/>
                <line id="_Path_17" data-name="&lt;Path&gt;" x2="97.678" fill="#171770"/>
                <line id="_Path_18" data-name="&lt;Path&gt;" x2="97.678" transform="translate(0 86.324)" fill="#171770"/>
                <rect id="_Rectangle_41" data-name="&lt;Rectangle&gt;" width="26.459" height="3.075" transform="translate(0 26.817)" fill="#171770"/>
                <rect id="_Rectangle_42" data-name="&lt;Rectangle&gt;" width="26.459" height="3.075" transform="translate(32.897 26.817)" fill="#171770"/>
                <g id="_Group_31" data-name="&lt;Group&gt;" transform="translate(91.151 26.817)">
                  <rect id="_Rectangle_43" data-name="&lt;Rectangle&gt;" width="6.526" height="3.075" fill="#171770"/>
                  <rect id="_Rectangle_44" data-name="&lt;Rectangle&gt;" width="6.526" height="3.075" transform="translate(0 8.2)" fill="#171770"/>
                  <rect id="_Rectangle_45" data-name="&lt;Rectangle&gt;" width="6.526" height="3.075" transform="translate(0 16.4)" fill="#171770"/>
                  <rect id="_Rectangle_46" data-name="&lt;Rectangle&gt;" width="6.526" height="3.075" transform="translate(0 24.6)" fill="#171770"/>
                  <rect id="_Rectangle_47" data-name="&lt;Rectangle&gt;" width="6.526" height="3.076" transform="translate(0 32.8)" fill="#171770"/>
                  <rect id="_Rectangle_48" data-name="&lt;Rectangle&gt;" width="6.526" height="3.075" transform="translate(0 41)" fill="#171770"/>
                </g>
                <g id="_Group_32" data-name="&lt;Group&gt;" transform="translate(84.448 26.817)">
                  <rect id="_Rectangle_49" data-name="&lt;Rectangle&gt;" width="3.426" height="3.075" fill="#171770"/>
                  <rect id="_Rectangle_50" data-name="&lt;Rectangle&gt;" width="3.426" height="3.075" transform="translate(0 8.2)" fill="#171770"/>
                  <rect id="_Rectangle_51" data-name="&lt;Rectangle&gt;" width="3.426" height="3.075" transform="translate(0 16.4)" fill="#171770"/>
                  <rect id="_Rectangle_52" data-name="&lt;Rectangle&gt;" width="3.426" height="3.075" transform="translate(0 24.6)" fill="#171770"/>
                  <rect id="_Rectangle_53" data-name="&lt;Rectangle&gt;" width="3.426" height="3.076" transform="translate(0 32.8)" fill="#171770"/>
                  <rect id="_Rectangle_54" data-name="&lt;Rectangle&gt;" width="3.426" height="3.075" transform="translate(0 41)" fill="#171770"/>
                </g>
                <rect id="_Rectangle_55" data-name="&lt;Rectangle&gt;" width="33.899" height="3.075" transform="translate(0 35.017)" fill="#171770"/>
                <rect id="_Rectangle_56" data-name="&lt;Rectangle&gt;" width="23.157" height="3.075" transform="translate(42.147 35.017)" fill="#171770"/>
                <rect id="_Rectangle_57" data-name="&lt;Rectangle&gt;" width="26.459" height="3.075" transform="translate(0 44.924)" fill="#171770"/>
                <rect id="_Rectangle_58" data-name="&lt;Rectangle&gt;" width="26.459" height="3.075" transform="translate(32.897 44.924)" fill="#171770"/>
                <rect id="_Rectangle_59" data-name="&lt;Rectangle&gt;" width="33.899" height="3.075" transform="translate(0 53.124)" fill="#171770"/>
                <rect id="_Rectangle_60" data-name="&lt;Rectangle&gt;" width="52.442" height="3.075" transform="translate(0 6.926)" fill="#171770"/>
                <rect id="_Rectangle_61" data-name="&lt;Rectangle&gt;" width="37.073" height="3.075" transform="translate(60.604 6.926)" fill="#171770"/>
                <rect id="_Rectangle_62" data-name="&lt;Rectangle&gt;" width="33.899" height="3.075" transform="translate(42.147 53.124)" fill="#171770"/>
                <rect id="_Rectangle_63" data-name="&lt;Rectangle&gt;" width="26.459" height="3.075" transform="translate(0 63.033)" fill="#171770"/>
                <rect id="_Rectangle_64" data-name="&lt;Rectangle&gt;" width="26.459" height="3.075" transform="translate(32.897 63.033)" fill="#171770"/>
                <rect id="_Rectangle_65" data-name="&lt;Rectangle&gt;" width="33.899" height="3.075" transform="translate(0 71.233)" fill="#171770"/>
                <rect id="_Rectangle_66" data-name="&lt;Rectangle&gt;" width="33.899" height="3.075" transform="translate(42.147 71.233)" fill="#171770"/>
              </g>
            </g>
            <g id="_Group_33" data-name="&lt;Group&gt;" transform="translate(314.915 310.94)">
              <rect id="_Rectangle_67" data-name="&lt;Rectangle&gt;" width="171.07" height="102.993" rx="5.192" fill="url(#linear-gradient-10)"/>
              <rect id="_Rectangle_68" data-name="&lt;Rectangle&gt;" width="171.07" height="30.269" transform="translate(0 22.257)" fill="#fff" opacity="0.2"/>
              <g id="_Group_34" data-name="&lt;Group&gt;" transform="translate(9.054 64.824)">
                <rect id="_Rectangle_69" data-name="&lt;Rectangle&gt;" width="81.058" height="4.305" rx="1.262" fill="#fff"/>
                <rect id="_Rectangle_70" data-name="&lt;Rectangle&gt;" width="81.058" height="4.305" rx="1.262" transform="translate(0 8.429)" fill="#fff"/>
                <rect id="_Rectangle_71" data-name="&lt;Rectangle&gt;" width="60.923" height="4.305" rx="1.262" transform="translate(0 16.857)" fill="#fff"/>
              </g>
              <path id="_Rectangle_72" data-name="&lt;Rectangle&gt;" d="M385.651,324.977h19.96a3.665,3.665,0,0,1,3.665,3.665v9.968a3.666,3.666,0,0,1-3.666,3.666H385.65a3.665,3.665,0,0,1-3.665-3.665v-9.97a3.665,3.665,0,0,1,3.666-3.665Z" transform="translate(-250.993 -256.585)" fill="url(#linear-gradient-11)"/>
            </g>
            <g id="_Group_35" data-name="&lt;Group&gt;" transform="translate(297.248 404.614)">
              <rect id="_Rectangle_73" data-name="&lt;Rectangle&gt;" width="79.662" height="18.636" fill="url(#linear-gradient-5)"/>
              <rect id="_Rectangle_74" data-name="&lt;Rectangle&gt;" width="79.662" height="2.674" fill="#ffcc48"/>
              <g id="_Group_36" data-name="&lt;Group&gt;" transform="translate(6.73)">
                <rect id="_Rectangle_75" data-name="&lt;Rectangle&gt;" width="3.462" height="18.636" fill="#ffbe00" opacity="0.3"/>
                <rect id="_Rectangle_76" data-name="&lt;Rectangle&gt;" width="3.462" height="18.636" transform="translate(10.456)" fill="#ffbe00" opacity="0.3"/>
                <rect id="_Rectangle_77" data-name="&lt;Rectangle&gt;" width="3.462" height="18.636" transform="translate(20.913)" fill="#ffbe00" opacity="0.3"/>
                <rect id="_Rectangle_78" data-name="&lt;Rectangle&gt;" width="3.462" height="18.636" transform="translate(31.369)" fill="#ffbe00"/>
                <rect id="_Rectangle_79" data-name="&lt;Rectangle&gt;" width="3.462" height="18.636" transform="translate(41.825)" fill="#ffbe00"/>
                <rect id="_Rectangle_80" data-name="&lt;Rectangle&gt;" width="3.462" height="18.636" transform="translate(52.283)" fill="#ffbe00"/>
                <rect id="_Rectangle_81" data-name="&lt;Rectangle&gt;" width="3.462" height="18.636" transform="translate(62.739)" fill="#ffbe00"/>
              </g>
              <rect id="_Rectangle_82" data-name="&lt;Rectangle&gt;" width="43.589" height="18.636" transform="translate(30.693)" fill="#ffe6b1" opacity="0.5"/>
              <rect id="_Rectangle_83" data-name="&lt;Rectangle&gt;" width="11.053" height="18.636" transform="translate(63.229)" fill="#ffe8c4" opacity="0.5"/>
            </g>
            <g id="_Group_37" data-name="&lt;Group&gt;" transform="translate(126.265 246.408)">
              <g id="_Group_38" data-name="&lt;Group&gt;">
                <path id="_Path_19" data-name="&lt;Path&gt;" d="M187.118,216.062a18.737,18.737,0,0,1-13.918-4.131,3.547,3.547,0,0,0-4.563,0,18.74,18.74,0,0,1-13.92,4.131c-10.72-1.013-16.677-2.832-18.582,1.083l22.156,37.974,12.626,11.02,12.626-11.02L205.7,217.145C203.795,213.23,197.842,215.049,187.118,216.062Z" transform="translate(-103.463 -211.1)" fill="#5766ae"/>
                <path id="_Path_20" data-name="&lt;Path&gt;" d="M159.864,214.807a19.449,19.449,0,0,1-7.247.635c-1.386-.131-2.685-.275-3.917-.419l13.93,31.028Z" transform="translate(-101.361 -210.48)" fill="url(#linear-gradient-13)"/>
                <path id="_Path_21" data-name="&lt;Path&gt;" d="M159.864,214.807a19.449,19.449,0,0,1-7.247.635c-1.386-.131-2.685-.275-3.917-.419l13.93,31.028Z" transform="translate(-101.361 -210.48)" fill="#4455a5"/>
                <path id="_Path_22" data-name="&lt;Path&gt;" d="M172.215,248.676l21.7-34.419c-3.008.153-6.981.8-12.023,1.277a19.156,19.156,0,0,1-8.845-1.167l-5.676,31.78Z" transform="translate(-98.239 -210.572)" fill="url(#linear-gradient-14)"/>
                <path id="_Path_23" data-name="&lt;Path&gt;" d="M172.215,248.676l21.7-34.419c-3.008.153-6.981.8-12.023,1.277a19.156,19.156,0,0,1-8.845-1.167l-5.676,31.78Z" transform="translate(-98.239 -210.572)" fill="#4455a5"/>
                <path id="_Path_24" data-name="&lt;Path&gt;" d="M190,244.107l-.409-.037v-2.5L175.6,242.822l-13.991-1.248v2.5l-.409.037s-60.439,47.445-52.3,118.345c0,0-1.684,27.206,66.7,26.135,68.387,1.072,66.7-26.135,66.7-26.135C250.438,291.552,190,244.107,190,244.107Z" transform="translate(-108.144 -206.003)" fill="#6977b7"/>
                <path id="_Compound_Path_" data-name="&lt;Compound Path&gt;" d="M173.743,307.213V293.895a32.063,32.063,0,0,1,11.985,4.075l3.917-9.634a35.42,35.42,0,0,0-15.9-4.778v-8.54h-7.831v8.695c-12.373,1.411-18.409,8.536-18.409,16.841,0,11.206,9.713,14.1,18.409,16.213V329.85a31.678,31.678,0,0,1-15.2-5.561l-4.308,9.555c4.308,3.368,11.75,5.8,19.5,6.267v8.536h7.831v-8.772c12.3-1.489,18.251-8.54,18.251-16.685C191.994,312.14,182.439,309.244,173.743,307.213Zm-7.831-1.957c-3.447-1.1-5.8-2.588-5.8-5.329,0-2.584,1.646-4.858,5.8-5.8Zm7.831,24.279v-10.81c3.37,1.174,5.64,2.665,5.64,5.4,0,2.5-1.724,4.541-5.64,5.4Z" transform="translate(-101.745 -200.409)" fill="url(#linear-gradient-15)"/>
                <g id="_Group_39" data-name="&lt;Group&gt;" transform="translate(47.334 32.666)">
                  <g id="_Group_40" data-name="&lt;Group&gt;" transform="translate(0.286)">
                    <path id="_Path_25" data-name="&lt;Path&gt;" d="M151.855,247.429a2.905,2.905,0,0,1-.21-5.8l34.288-2.532a2.906,2.906,0,1,1,.426,5.8l-34.287,2.532C152,247.425,151.928,247.429,151.855,247.429Z" transform="translate(-148.941 -239.085)" fill="#eaeef8"/>
                  </g>
                  <g id="_Group_41" data-name="&lt;Group&gt;" transform="translate(0 5.443)">
                    <path id="_Path_26" data-name="&lt;Path&gt;" d="M186.006,250.216h-.057l-34.375-.655a2.906,2.906,0,1,1,.055-5.812h.056l34.376.655a2.906,2.906,0,1,1-.055,5.812Z" transform="translate(-148.695 -243.748)" fill="#eaeef8"/>
                  </g>
                </g>
              </g>
            </g>
            <g id="_Group_42" data-name="&lt;Group&gt;" transform="translate(569.67 383.658)">
              <path id="_Path_27" data-name="&lt;Path&gt;" d="M499.187,343.362s-.385-13.6-5.072-14.606-5.357,8.48,0,17.859Z" transform="translate(-487.624 -328.683)" fill="url(#linear-gradient-16)"/>
              <path id="_Path_28" data-name="&lt;Path&gt;" d="M493.1,331.8s.945,3.3,3.206,12.588" transform="translate(-487.163 -328.161)" fill="none" stroke="#ff9615" stroke-linecap="round" stroke-miterlimit="10" stroke-width="0.566"/>
              <path id="_Path_29" data-name="&lt;Path&gt;" d="M500.27,345.652s7.141-6.918,4.464-10.266-9.374,2.451-11.159,10.266Z" transform="translate(-487.084 -327.724)" fill="url(#linear-gradient-17)"/>
              <path id="_Path_30" data-name="&lt;Path&gt;" d="M502.165,336.872a25.318,25.318,0,0,0-5.245,7.365" transform="translate(-486.524 -327.314)" fill="none" stroke="#ff9615" stroke-linecap="round" stroke-miterlimit="10" stroke-width="0.566"/>
              <path id="_Path_31" data-name="&lt;Path&gt;" d="M495.155,345.079s-1.822-7.867-5.5-7.2,0,7.141,0,7.141Z" transform="translate(-488.014 -327.151)" fill="url(#linear-gradient-18)"/>
              <line id="_Path_32" data-name="&lt;Path&gt;" x2="1.227" y2="4.576" transform="translate(2.307 12.292)" fill="none" stroke="#ff9615" stroke-linecap="round" stroke-miterlimit="10" stroke-width="0.566"/>
            </g>
            <g id="_Group_43" data-name="&lt;Group&gt;" transform="translate(267.799 400.432)">
              <path id="_Path_33" data-name="&lt;Path&gt;" d="M240.567,357.733s-.385-13.6-5.072-14.606-5.357,8.481,0,17.859Z" transform="translate(-229.009 -343.054)" fill="url(#linear-gradient-19)"/>
              <path id="_Path_34" data-name="&lt;Path&gt;" d="M234.481,346.176s.945,3.3,3.206,12.588" transform="translate(-228.548 -342.532)" fill="none" stroke="#ff9615" stroke-linecap="round" stroke-miterlimit="10" stroke-width="0.566"/>
              <path id="_Path_35" data-name="&lt;Path&gt;" d="M241.659,360.024s7.142-6.918,4.464-10.272-9.373,2.451-11.159,10.272Z" transform="translate(-228.467 -342.096)" fill="url(#linear-gradient-20)"/>
              <path id="_Path_36" data-name="&lt;Path&gt;" d="M243.551,351.243a25.364,25.364,0,0,0-5.244,7.365" transform="translate(-227.908 -341.685)" fill="none" stroke="#ff9615" stroke-linecap="round" stroke-miterlimit="10" stroke-width="0.566"/>
              <path id="_Path_37" data-name="&lt;Path&gt;" d="M236.54,359.45s-1.823-7.867-5.506-7.2,0,7.142,0,7.142Z" transform="translate(-229.398 -341.522)" fill="url(#linear-gradient-21)"/>
              <line id="_Path_38" data-name="&lt;Path&gt;" x2="1.228" y2="4.574" transform="translate(2.307 12.293)" fill="none" stroke="#ff9615" stroke-linecap="round" stroke-miterlimit="10" stroke-width="0.566"/>
            </g>
            <path id="_Compound_Path_2" data-name="&lt;Compound Path&gt;" d="M367.738,86.722c-17.842,0-30.772,14.463-30.772,32.3,0,21.392,30.772,44.158,30.772,44.158s30.772-22.575,30.772-44.158C398.511,101.185,385.58,86.722,367.738,86.722Zm-.6,48.324a14.581,14.581,0,1,0,0-.006Z" transform="translate(56.392 14.505)" fill="#6977b7"/>
            <g id="_Group_44" data-name="&lt;Group&gt;" transform="translate(48.246 83.491)" opacity="0.75">
              <path id="Path_2438" data-name="Path 2438" d="M54.874,83.517a8.564,8.564,0,0,0-.836,12.957,15.437,15.437,0,0,0,6.98-18.9c-5.253,1.893-10.575,4.912-12.887,10s.04,12.43,5.53,13.469c4.279.808,8.477-2.491,10.19-6.493s1.54-8.527,1.337-12.877" transform="translate(-40.311 -70.516)" fill="#eceef4"/>
              <path id="Path_2439" data-name="Path 2439" d="M50.954,79.614c-7.111,5.653-6.9,16.535-.835,22.787a7.081,7.081,0,0,0,8.421,1.087A22.582,22.582,0,0,0,68.713,76.739c-1.167-3.282-4.827-6.262-8.548-4.853-7.412,2.8-14.808,7.025-17.742,14.854a17.655,17.655,0,0,0,3.618,18.217c5.441,5.476,13.757,5.155,19.578.57,7.083-5.578,7.87-14.44,7.5-22.841-.388-8.909-14.287-8.956-13.9,0,.145,3.308.733,7.5-.973,10.546-.817,1.45-1.868,2.41-2.587,1.593-3.631-4.1,5.872-8.662,8.187-9.539l-8.548-4.852c1.547,4.346.319,8.695-3.787,11.053l8.421,1.087c-1.177-1.213-.233-2.28.835-3.133,2.961-2.353,2.413-7.361,0-9.827-2.87-2.933-6.905-2.322-9.827,0Z" transform="translate(-41.305 -71.527)" fill="#eceef4"/>
            </g>
            <g id="_Group_45" data-name="&lt;Group&gt;" transform="translate(512.425 152.83)">
              <path id="Path_2441" data-name="Path 2441" d="M441.59,136.347c3.485,0,3.491-5.416,0-5.416S438.1,136.347,441.59,136.347Z" transform="translate(-438.972 -130.931)" fill="url(#linear-gradient-22)"/>
            </g>
            <g id="_Group_46" data-name="&lt;Group&gt;" transform="translate(14.993 286.754)">
              <path id="Path_2443" data-name="Path 2443" d="M17.681,247.044a2.785,2.785,0,0,0-2.031-1.379,2.785,2.785,0,0,0-2.031,1.379,2.974,2.974,0,0,0-.588,3.138,2.861,2.861,0,1,0,4.656-3.136Z" transform="translate(-12.817 -245.665)" fill="url(#linear-gradient-23)"/>
            </g>
            <g id="_Group_47" data-name="&lt;Group&gt;" transform="translate(87.959 161.056)">
              <path id="Path_2445" data-name="Path 2445" d="M83.233,147.765a8.726,8.726,0,0,0,1.656-1.125,4.773,4.773,0,0,0,1.412-3.41,4.669,4.669,0,0,0-1.412-3.411,8.626,8.626,0,0,0-1.656-1.125,5.254,5.254,0,1,0,0,9.071Z" transform="translate(-75.327 -137.978)" fill="url(#linear-gradient-24)"/>
            </g>
            <g id="_Group_48" data-name="&lt;Group&gt;" transform="translate(521.746 134.448)">
              <path id="Path_2446" data-name="Path 2446" d="M453.775,120.948l-1.8,1.8" transform="translate(-446.117 -114.219)" fill="url(#linear-gradient-25)"/>
              <path id="Path_2447" data-name="Path 2447" d="M449.856,117.153l-.942,1.017a6.674,6.674,0,0,0-1.717,6.5,7.139,7.139,0,0,0,1.7,2.96,8.288,8.288,0,0,0,2.96,1.7,6.672,6.672,0,0,0,6.5-1.717l1.017-.942a6.73,6.73,0,0,0-9.517-9.518Z" transform="translate(-446.957 -115.183)" fill="url(#linear-gradient-26)"/>
            </g>
            <circle id="Ellipse_31" data-name="Ellipse 31" cx="16.596" cy="16.596" r="16.596" transform="translate(121.264 165.683)" fill="#6977b7"/>
            <circle id="Ellipse_32" data-name="Ellipse 32" cx="13.742" cy="13.742" r="13.742" transform="translate(124.118 168.537)" fill="#4455a5"/>
            <path id="Path_2448" data-name="Path 2448" d="M122.931,159.446c0-3.52-5.636-3.351-5.636-4.724,0-.561.477-.886,1.339-.886a3.788,3.788,0,0,1,1.959.511,1.068,1.068,0,0,0,1.328-.233l.1-.117a1.076,1.076,0,0,0-.233-1.6,5,5,0,0,0-2.161-.8v-1.571a.941.941,0,0,0-.941-.941h0a.941.941,0,0,0-.941.941v1.6c-1.961.307-3.177,1.47-3.177,3.136,0,3.555,5.634,3.268,5.634,4.885,0,.553-.49.88-1.425.88a5.57,5.57,0,0,1-2.619-.707,1.076,1.076,0,0,0-1.41.36l-.133.207a1.063,1.063,0,0,0,.35,1.5,7.542,7.542,0,0,0,2.775.894v1.879a.941.941,0,0,0,.941.941h0a.941.941,0,0,0,.941-.941v-1.945C121.768,162.354,122.931,161.06,122.931,159.446Z" transform="translate(19.173 24.935)" fill="#eaeef8"/>
            <circle id="Ellipse_33" data-name="Ellipse 33" cx="16.596" cy="16.596" r="16.596" transform="translate(145.678 124.328)" fill="#6977b7"/>
            <circle id="Ellipse_34" data-name="Ellipse 34" cx="13.742" cy="13.742" r="13.742" transform="translate(148.532 127.182)" fill="#4455a5"/>
            <path id="Path_2449" data-name="Path 2449" d="M143.847,124.017c0-3.52-5.634-3.351-5.634-4.724,0-.561.476-.886,1.339-.886a3.788,3.788,0,0,1,1.959.511,1.068,1.068,0,0,0,1.328-.233l.1-.117a1.076,1.076,0,0,0-.233-1.6,4.991,4.991,0,0,0-2.159-.8v-1.571a.941.941,0,0,0-.941-.941h0a.941.941,0,0,0-.942.941v1.6c-1.96.307-3.176,1.47-3.176,3.136,0,3.555,5.634,3.268,5.634,4.885,0,.553-.49.88-1.426.88a5.574,5.574,0,0,1-2.619-.707,1.076,1.076,0,0,0-1.41.36l-.133.207a1.063,1.063,0,0,0,.357,1.5,7.535,7.535,0,0,0,2.773.894v1.885a.941.941,0,0,0,.942.941h0a.941.941,0,0,0,.941-.941v-1.945C142.685,126.925,143.847,125.631,143.847,124.017Z" transform="translate(22.672 19.009)" fill="#eaeef8"/>
            <circle id="Ellipse_35" data-name="Ellipse 35" cx="16.596" cy="16.596" r="16.596" transform="translate(81.666 135.345)" fill="#6977b7"/>
            <circle id="Ellipse_36" data-name="Ellipse 36" cx="13.742" cy="13.742" r="13.742" transform="translate(84.52 138.199)" fill="#4455a5"/>
            <path id="Path_2450" data-name="Path 2450" d="M89.007,133.455c0-3.52-5.634-3.352-5.634-4.724,0-.561.476-.887,1.339-.887a3.788,3.788,0,0,1,1.959.512A1.069,1.069,0,0,0,88,128.123l.1-.117a1.076,1.076,0,0,0-.233-1.6,4.99,4.99,0,0,0-2.159-.8v-1.569a.941.941,0,0,0-.941-.941h0a.941.941,0,0,0-.942.941v1.6c-1.96.306-3.176,1.468-3.176,3.136,0,3.555,5.634,3.268,5.634,4.884,0,.554-.49.881-1.426.881a5.562,5.562,0,0,1-2.619-.709,1.079,1.079,0,0,0-1.41.36l-.133.208a1.063,1.063,0,0,0,.357,1.5,7.58,7.58,0,0,0,2.773.894v1.879a.941.941,0,0,0,.942.941h0a.941.941,0,0,0,.941-.941v-1.945C87.851,136.361,89.007,135.069,89.007,133.455Z" transform="translate(13.5 20.589)" fill="#eaeef8"/>
            <path id="Path_2451" data-name="Path 2451" d="M109.337,108.008l1.95-9.534,3.129,9.47,6.873,3.129-6.938,3.247-3.247,9.534-1.831-9.469-8.172-3.129Z" transform="translate(16.942 16.471)" fill="#cfdaef"/>
            <path id="Path_2452" data-name="Path 2452" d="M147.528,146.067l1.107-5.414,1.778,5.378,3.9,1.777-3.939,1.845-1.844,5.414-1.041-5.378-4.64-1.778Z" transform="translate(23.925 23.525)" fill="#cfdaef"/>
            <path id="Path_2453" data-name="Path 2453" d="M87.287,158.525l1.107-5.415,1.778,5.378,3.9,1.778-3.941,1.844-1.844,5.415-1.04-5.378-4.641-1.778Z" transform="translate(13.849 25.609)" fill="#cfdaef"/>
          </g>
        </g>
      </g>
    </g>
  </g>
</svg>
