<svg xmlns="http://www.w3.org/2000/svg" width="325.406" height="341.476" viewBox="0 0 325.406 341.476">
  <g id="Layer_2" data-name="Layer 2" transform="translate(0)">
    <g id="Layer_1" data-name="Layer 1" transform="translate(0 0)">
      <path id="Path_4010" data-name="Path 4010" d="M321.875,242.03l-95.542,55.183c-4.269,2.465-10.724,2.732-14.421.6L2.5,176.9c-3.7-2.134-3.233-5.861,1.036-8.325L99.073,113.4c4.275-2.463,10.724-2.731,14.421-.6L322.91,233.706C326.605,235.839,326.142,239.566,321.875,242.03Z" transform="translate(0 42.223)" fill="#13247a" opacity="0.5"/>
      <path id="Path_4011" data-name="Path 4011" d="M325.405,212.834l-19.684-3.426L113.492,98.425c-3.695-2.135-10.151-1.866-14.419.6L10.025,150.456,0,148.711v10.184H.01a4.264,4.264,0,0,0,2.483,3.635L211.909,283.437c3.7,2.134,10.152,1.866,14.421-.6l95.542-55.183c2.369-1.368,3.562-3.127,3.525-4.784h0Z" transform="translate(0 36.773)" fill="#6977b7"/>
      <path id="Path_4012" data-name="Path 4012" d="M321.875,220.326,226.333,275.51c-4.269,2.465-10.724,2.732-14.421.6L2.5,155.2c-3.7-2.134-3.233-5.861,1.036-8.325L99.073,91.687c4.275-2.463,10.724-2.731,14.421-.6L322.91,212C326.605,214.131,326.142,217.858,321.875,220.326Z" transform="translate(0 33.992)" fill="#bdc4e4"/>
      <path id="Path_4013" data-name="Path 4013" d="M321.865,202.168l-95.542,55.183c-4.269,2.465-10.724,2.732-14.421.6L2.485,137.043A4.608,4.608,0,0,1,.06,134.094a4.06,4.06,0,0,0,2.425,4.251L211.9,259.252c3.7,2.134,10.152,1.866,14.421-.6l95.542-55.179c2.655-1.532,3.835-3.554,3.46-5.379A6.462,6.462,0,0,1,321.865,202.168Z" transform="translate(0.01 50.844)" fill="#fff"/>
      <path id="Path_4014" data-name="Path 4014" d="M321.087,210.946l-111,64.107L2.456,155.174l111-64.107Z" transform="translate(0.932 34.53)" fill="#4455a5"/>
      <path id="Path_4015" data-name="Path 4015" d="M52.373,109.689,37.629,118.2a2.4,2.4,0,0,1-2.163.09l-.15-.086c-.552-.32-.485-.88.156-1.25l14.743-8.512a2.407,2.407,0,0,1,2.164-.09l.149.086C53.089,108.761,53.013,109.326,52.373,109.689Z" transform="translate(13.249 41.003)" fill="#0063ad"/>
      <path id="Path_4016" data-name="Path 4016" d="M23.785,139.006l-1.86,1.076-4.409-2.546,1.862-1.074Z" transform="translate(6.642 51.742)" fill="#fff"/>
      <path id="Path_4017" data-name="Path 4017" d="M26.272,137.571l-1.862,1.074L20,136.1l1.862-1.074Z" transform="translate(7.584 51.197)" fill="#fff"/>
      <path id="Path_4018" data-name="Path 4018" d="M28.758,136.135,26.9,137.209l-4.408-2.545,1.86-1.074Z" transform="translate(8.527 50.653)" fill="#fff"/>
      <path id="Path_4019" data-name="Path 4019" d="M31.244,134.7l-1.861,1.074-4.409-2.546,1.862-1.074Z" transform="translate(9.47 50.109)" fill="#fff"/>
      <path id="Path_4020" data-name="Path 4020" d="M77.023,0a6.561,6.561,0,1,1-6.561,6.561A6.561,6.561,0,0,1,77.023,0Z" transform="translate(26.717 0)" fill="#fff"/>
      <path id="Path_4021" data-name="Path 4021" d="M61.665,0a6.561,6.561,0,1,1-6.559,6.56A6.561,6.561,0,0,1,61.665,0Z" transform="translate(20.895 0)" fill="#c2d8ff"/>
      <path id="Path_4022" data-name="Path 4022" d="M46.31,0a6.561,6.561,0,1,1-6.561,6.561A6.561,6.561,0,0,1,46.31,0Z" transform="translate(15.072)" fill="#c2d8ff" opacity="0.5"/>
      <path id="Path_4023" data-name="Path 4023" d="M30.954,0a6.561,6.561,0,1,1-6.561,6.561A6.561,6.561,0,0,1,30.954,0Z" transform="translate(9.249 0)" fill="#7bdaff" opacity="0.1"/>
      <ellipse id="Ellipse_61" data-name="Ellipse 61" cx="37.107" cy="21.424" rx="37.107" ry="21.424" transform="translate(103.219 181.728)" fill="#041860" opacity="0.6"/>
      <path id="Path_4024" data-name="Path 4024" d="M117.62,190.038c-14.747,0-29.5-3.241-40.724-9.725-10.973-6.333-17.015-14.786-17.015-23.8s6.041-17.466,17.013-23.8c22.457-12.964,58.993-12.964,81.45,0,10.971,6.333,17.015,14.785,17.015,23.8s-6.042,17.463-17.013,23.8C147.118,186.8,132.369,190.038,117.62,190.038Zm0-66.062c-14.571,0-29.139,3.2-40.23,9.606-10.653,6.143-16.517,14.29-16.517,22.934s5.867,16.79,16.521,22.941c22.184,12.806,58.278,12.806,80.459,0,10.651-6.151,16.518-14.3,16.518-22.94s-5.867-16.791-16.52-22.942c-11.094-6.4-25.664-9.607-40.232-9.607Z" transform="translate(22.705 46.636)" fill="#fff"/>
      <path id="Path_4025" data-name="Path 4025" d="M125.647,22.168l-35.817-2.9v73.2c0,3.656,2.223,7.9,4.965,9.487l68.917,39.785C181.521,116.5,177.5,77.837,177.5,77.837Z" transform="translate(34.061 7.307)" fill="#041860" opacity="0.2"/>
      <path id="Path_4026" data-name="Path 4026" d="M173.122,84.387,121.281,28.718,69.438,24.524S61.1,94.8,121.281,169.345C181.455,164.286,173.122,84.387,173.122,84.387Z" transform="translate(26.18 9.299)" fill="#5766ae"/>
      <path id="Path_4027" data-name="Path 4027" d="M72.537,24.524,60.872,31.258l51.843,4.194,11.665-6.734Z" transform="translate(23.081 9.299)" fill="#bbd3ff"/>
      <path id="Path_4028" data-name="Path 4028" d="M164.666,89.27,112.823,33.6,91.506,31.447,60.98,29.407s-8.332,70.278,51.843,144.82C173,169.169,164.666,89.27,164.666,89.27Z" transform="translate(22.973 11.15)" fill="#cfdaef"/>
      <path id="Path_4029" data-name="Path 4029" d="M164.558,89.5,112.715,33.834,60.872,29.64l1.465-.847,52.533,4.251,51.843,55.669s6.955,66.792-37.855,82.1C171.287,154.131,164.558,89.5,164.558,89.5Z" transform="translate(23.081 10.917)" fill="#fff"/>
      <path id="Path_4030" data-name="Path 4030" d="M157.212,88.236,110.6,38.185,91.442,36.247,64,34.414S56.505,97.6,110.613,164.62C164.7,160.073,157.212,88.236,157.212,88.236Z" transform="translate(24.132 13.049)" fill="#fff" opacity="0.2"/>
      <rect id="Rectangle_209" data-name="Rectangle 209" width="2.591" height="2.591" transform="translate(99.908 64.58) rotate(45)" fill="#fff"/>
      <rect id="Rectangle_210" data-name="Rectangle 210" width="2.591" height="2.591" transform="matrix(0.707, 0.707, -0.707, 0.707, 106.529, 64.558)" fill="#fff"/>
      <rect id="Rectangle_211" data-name="Rectangle 211" width="2.591" height="2.591" transform="translate(103.23 61.258) rotate(45)" fill="#fff"/>
      <rect id="Rectangle_212" data-name="Rectangle 212" width="2.591" height="2.591" transform="matrix(0.707, 0.707, -0.707, 0.707, 103.208, 67.878)" fill="#fff"/>
      <path id="Path_4031" data-name="Path 4031" d="M213.037,48.122l-3.773-3.772,9.067-9.065-9.067-9.067,3.773-3.772,12.837,12.839ZM210.77,44.35l2.267,2.266,11.331-11.331L213.037,23.952l-2.267,2.266,9.065,9.067Z" transform="translate(79.347 8.511)" fill="#fff"/>
      <path id="Path_4032" data-name="Path 4032" d="M202.645,22.992l-3.02,3.02,9.065,9.065-9.065,9.065,3.02,3.019,9.065-9.065,3.019-3.019Z" transform="translate(75.692 8.718)" fill="#c2d8ff" opacity="0.5"/>
      <path id="Path_4033" data-name="Path 4033" d="M158.457,207.355a.725.725,0,0,1-.057-1.448,74.679,74.679,0,0,0,30.826-9.349c9.7-5.6,15.516-11.181,17.273-16.58a.725.725,0,1,1,1.379.45c-1.872,5.748-7.9,11.6-17.929,17.386a76.16,76.16,0,0,1-31.434,9.541Z" transform="translate(59.81 68.052)" fill="#fff"/>
      <path id="Path_4034" data-name="Path 4034" d="M209.845,183.009a.724.724,0,0,1-.724-.7c-.154-4.3-3.282-8.326-9.046-11.654-12.742-7.358-29.36-7.318-46.791.11a.725.725,0,1,1-.568-1.334c17.862-7.61,34.938-7.621,48.083-.032,6.219,3.586,9.6,8.035,9.77,12.857a.724.724,0,0,1-.7.75Z" transform="translate(57.728 62.077)" fill="#fff"/>
      <path id="Path_4035" data-name="Path 4035" d="M156.764,212.341H156.7a38.559,38.559,0,0,1-15.5-4.445c-4.492-2.593-7.29-6.1-8.094-10.141a1.87,1.87,0,0,1,.463-1.608,4.446,4.446,0,0,1,3.547-1.207,3.459,3.459,0,0,1,3.335,1.942,12.239,12.239,0,0,0,6.128,7.067c11.309,6.533,33.1,4.582,48.578-4.35,9.982-5.764,15.259-11.639,15.259-16.99,0-3.767-2.671-7.3-7.723-10.22-13.041-7.529-30.747-5.944-48.578,4.35-6.432,3.714-11.046,8.263-12.988,12.811a3.354,3.354,0,0,1-3.106,1.611,3.8,3.8,0,0,1-3.274-1.342,1.655,1.655,0,0,1-.1-1.655c2.627-5.322,7.925-10.392,15.32-14.662a.724.724,0,0,1,.724,1.255c-7.145,4.125-12.244,8.984-14.743,14.048a.194.194,0,0,0,.019.225,2.507,2.507,0,0,0,2.014.676,2.12,2.12,0,0,0,1.812-.73c2.069-4.835,6.9-9.628,13.6-13.5,18.291-10.562,36.525-12.146,50.027-4.35,5.529,3.193,8.452,7.161,8.452,11.475,0,5.983-5.379,12.122-15.985,18.245-15.87,9.163-38.313,11.113-50.028,4.35a13.808,13.808,0,0,1-6.8-7.923c-.109-.382-.912-.828-2.019-.892a3.089,3.089,0,0,0-2.379.706.42.42,0,0,0-.138.375c.72,3.62,3.277,6.79,7.4,9.169a37.1,37.1,0,0,0,14.912,4.256.725.725,0,0,1-.066,1.447Z" transform="translate(50.456 63.033)" fill="#fff"/>
      <path id="Path_4036" data-name="Path 4036" d="M164.417,202.3a3.982,3.982,0,0,1-2.9-1.067,1.717,1.717,0,0,1-.414-1.713,2.791,2.791,0,0,1,2.236-1.627,46.262,46.262,0,0,0,13.777-5.137c6.7-3.869,10.5-7.734,10.974-11.171a5.569,5.569,0,0,0-1.771-4.772,1.822,1.822,0,0,1-.53-1.718,2.7,2.7,0,0,1,1.883-1.771,5.035,5.035,0,0,1,5,.85,8.792,8.792,0,0,1,2.692,6.867c-.276,3.586-2.87,7.285-7.7,11.011a.725.725,0,1,1-.885-1.147c4.492-3.466,6.9-6.823,7.14-9.976a7.409,7.409,0,0,0-2.3-5.759,3.713,3.713,0,0,0-3.459-.479c-.63.222-.909.535-.956.735-.01.043-.04.174.159.378a6.951,6.951,0,0,1,2.167,5.981c-.552,3.957-4.482,8.072-11.684,12.232a47.771,47.771,0,0,1-14.214,5.3c-.69.138-1.073.44-1.146.662-.012.036-.041.124.1.287a2.961,2.961,0,0,0,2.557.512,54.476,54.476,0,0,0,15.626-5.91.725.725,0,0,1,.725,1.255,55.977,55.977,0,0,1-16.047,6.068,5.051,5.051,0,0,1-1.034.108Z" transform="translate(61.058 65.596)" fill="#fff"/>
      <path id="Path_4037" data-name="Path 4037" d="M160.456,205.034h-.17a28.655,28.655,0,0,1-13.277-3.222c-3.8-2.194-5.809-5.267-5.809-8.887,0-5.5,4.812-11.556,12.872-16.209,12.772-7.373,25.531-9.742,35.93-6.672a2.9,2.9,0,0,1,2.123,1.772,1.818,1.818,0,0,1-.428,1.742h0a4.955,4.955,0,0,1-4.827.976c-7.428-2.23-16.808-.654-26.411,4.438-.36.192-.49.392-.492.5,0,.138.161.314.414.461a3.462,3.462,0,0,0,2.972.039c9.549-5.048,18.446-5.968,24.411-2.527,2.4,1.387,3.673,3.2,3.673,5.252,0,3.368-3.31,6.983-9.825,10.748-8.938,5.158-20.719,6.758-26.264,3.553a5.715,5.715,0,0,1-3.034-4.073c-.334-2.2.69-4.667,2.978-7.137.131-.138.113-.222.108-.248-.033-.148-.251-.374-.665-.552a3.237,3.237,0,0,0-3.1.349c-2.514,2.724-3.7,5.55-3.333,7.958a6.758,6.758,0,0,0,3.7,4.8,19.87,19.87,0,0,0,8.674,2.231c1.851.106,3.186,1.026,3.244,2.241a1.855,1.855,0,0,1-.565,1.439,4.076,4.076,0,0,1-2.892,1.029Zm20.111-34.853c-8,0-16.866,2.648-25.77,7.788-7.608,4.393-12.148,9.982-12.148,14.954,0,3.073,1.758,5.713,5.085,7.632a27.209,27.209,0,0,0,12.6,3.034,2.75,2.75,0,0,0,1.978-.59.459.459,0,0,0,.156-.3c-.018-.371-.741-.854-1.883-.917a21.327,21.327,0,0,1-9.316-2.425,8.236,8.236,0,0,1-4.4-5.833c-.433-2.852.881-6.106,3.7-9.159a4.58,4.58,0,0,1,4.72-.7,2.345,2.345,0,0,1,1.525,1.574,1.7,1.7,0,0,1-.459,1.542c-1.945,2.1-2.87,4.212-2.609,5.93a4.267,4.267,0,0,0,2.327,3.034c5.143,2.969,16.274,1.379,24.813-3.553,5.868-3.389,9.1-6.758,9.1-9.493,0-1.517-.992-2.867-2.947-4-5.517-3.187-13.908-2.258-23.007,2.553a4.885,4.885,0,0,1-4.373-.065,2.014,2.014,0,0,1-1.141-1.74,2.1,2.1,0,0,1,1.262-1.761c9.94-5.271,19.707-6.888,27.506-4.551a3.586,3.586,0,0,0,3.324-.539h0c.181-.208.138-.337.13-.385-.072-.245-.452-.583-1.142-.786a31.778,31.778,0,0,0-9.027-1.244Zm10.584,2.9Z" transform="translate(53.539 63.979)" fill="#fff"/>
      <path id="Path_4038" data-name="Path 4038" d="M159.326,192.692a8.689,8.689,0,0,1-4.289-.916,3.242,3.242,0,0,1-1.775-2.888c0-2.591,2.793-5.75,7.468-8.449,7.585-4.382,14.215-5.579,18.186-3.287a3.645,3.645,0,0,1,2.116,3.082c.057,2.114-1.913,4.489-5.855,7.059a4.827,4.827,0,0,1-4.606.081,2.045,2.045,0,0,1-1.141-1.67,1.931,1.931,0,0,1,.992-1.655c3.164-2.054,3.161-2.9,3.161-2.9-.883-.51-3.55-.076-8.378,2.713-3.35,1.931-4.733,3.586-4.731,4.049a.725.725,0,0,1-.72.73h0a.725.725,0,0,1-.724-.72c-.014-2,4.172-4.573,5.456-5.314,3.31-1.914,7.7-3.95,9.763-2.758a1.47,1.47,0,0,1,.788,1.252c.019.71-.357,1.914-3.82,4.162-.207.138-.334.288-.331.4s.113.276.414.452a3.4,3.4,0,0,0,3.091-.04c4.577-2.985,5.222-4.918,5.2-5.806a2.316,2.316,0,0,0-1.392-1.866c-1.655-.957-6.62-2.556-16.736,3.287-4.095,2.364-6.743,5.188-6.743,7.194a1.818,1.818,0,0,0,1.051,1.633c1.761,1.016,5.22.965,9.256-.152a.724.724,0,1,1,.385,1.4A23.308,23.308,0,0,1,159.326,192.692Z" transform="translate(58.113 66.738)" fill="#fff"/>
      <path id="Path_4039" data-name="Path 4039" d="M154.328,173.31a.467.467,0,0,1-.23-.062L135,162.226a.461.461,0,0,1,.461-.8l19.093,11.022a.461.461,0,0,1-.23.859Z" transform="translate(51.108 61.188)" fill="#fff"/>
    </g>
  </g>
</svg>
